<?xml version="1.0" encoding="UTF-8"?>
<svg xmlns="http://www.w3.org/2000/svg" xmlns:xlink="http://www.w3.org/1999/xlink" width="1012.5pt" height="487.499991pt" viewBox="0 0 1012.5 487.499991" version="1.2">
<defs>
<clipPath id="clip1">
  <path d="M 0.269531 0 L 1011.730469 0 L 1011.730469 487 L 0.269531 487 Z M 0.269531 0 "/>
</clipPath>
<clipPath id="clip2">
  <path d="M 472 329.273438 L 512 329.273438 L 512 438.570312 L 472 438.570312 Z M 472 329.273438 "/>
</clipPath>
<clipPath id="clip3">
  <path d="M 275 341 L 481.816406 341 L 481.816406 438.570312 L 275 438.570312 Z M 275 341 "/>
</clipPath>
<clipPath id="clip4">
  <path d="M 41.867188 341 L 248 341 L 248 438.570312 L 41.867188 438.570312 Z M 41.867188 341 "/>
</clipPath>
<clipPath id="clip5">
  <path d="M 496.242188 302 L 735.6875 302 L 735.6875 438.570312 L 496.242188 438.570312 Z M 496.242188 302 "/>
</clipPath>
<clipPath id="clip6">
  <path d="M 505 302 L 718 302 L 718 438.570312 L 505 438.570312 Z M 505 302 "/>
</clipPath>
<clipPath id="clip7">
  <path d="M 704 324 L 745 324 L 745 438.570312 L 704 438.570312 Z M 704 324 "/>
</clipPath>
<clipPath id="clip8">
  <path d="M 704 348.027344 L 728 348.027344 L 728 438.570312 L 704 438.570312 Z M 704 348.027344 "/>
</clipPath>
<clipPath id="clip9">
  <path d="M 516 341 L 722.707031 341 L 722.707031 438.570312 L 516 438.570312 Z M 516 341 "/>
</clipPath>
<clipPath id="clip10">
  <path d="M 755 341 L 961.792969 341 L 961.792969 438.570312 L 755 438.570312 Z M 755 341 "/>
</clipPath>
</defs>
<g id="surface1">
<g clip-path="url(#clip1)" clip-rule="nonzero">
<path style=" stroke:none;fill-rule:nonzero;fill:rgb(100%,100%,100%);fill-opacity:1;" d="M 0.269531 0 L 1012.230469 0 L 1012.230469 493.988281 L 0.269531 493.988281 Z M 0.269531 0 "/>
<path style=" stroke:none;fill-rule:nonzero;fill:rgb(100%,100%,100%);fill-opacity:1;" d="M 0.269531 0 L 1012.230469 0 L 1012.230469 487.242188 L 0.269531 487.242188 Z M 0.269531 0 "/>
<path style=" stroke:none;fill-rule:nonzero;fill:rgb(59.999084%,0%,0%);fill-opacity:1;" d="M 0.269531 0 L 1012.230469 0 L 1012.230469 487.242188 L 0.269531 487.242188 Z M 0.269531 0 "/>
</g>
<path style=" stroke:none;fill-rule:nonzero;fill:rgb(92.549133%,79.219055%,62.348938%);fill-opacity:1;" d="M 316.363281 349.964844 C 316.363281 349.964844 324.464844 314.996094 345.359375 303.910156 C 366.25 292.820312 338.535156 354.660156 337.253906 354.660156 C 335.976562 354.660156 324.894531 361.058594 316.363281 349.964844 "/>
<path style=" stroke:none;fill-rule:nonzero;fill:rgb(83.529663%,70.588684%,53.729248%);fill-opacity:1;" d="M 345.359375 303.910156 C 335.175781 309.308594 328.039062 320.382812 323.382812 330.320312 C 323.1875 331.464844 323.191406 332.488281 323.609375 332.914062 C 332.054688 339.546875 331.109375 349.164062 326.515625 356.339844 C 331.898438 357.113281 336.460938 354.660156 337.253906 354.660156 C 338.535156 354.660156 366.25 292.820312 345.359375 303.910156 "/>
<path style=" stroke:none;fill-rule:nonzero;fill:rgb(92.549133%,79.219055%,62.348938%);fill-opacity:1;" d="M 489.472656 223.964844 C 492.03125 219.910156 491.179688 214.582031 484.570312 217.140625 C 477.960938 219.699219 463.035156 237.394531 472.417969 241.660156 C 481.800781 245.925781 489.472656 223.964844 489.472656 223.964844 "/>
<path style=" stroke:none;fill-rule:nonzero;fill:rgb(92.549133%,79.219055%,62.348938%);fill-opacity:1;" d="M 390.554688 294.097656 C 390.554688 294.097656 408.039062 296.65625 426.371094 291.117188 C 444.703125 285.574219 463.464844 270.859375 463.464844 270.859375 C 463.464844 270.859375 477.535156 277.46875 482.863281 286.636719 C 488.195312 295.808594 485.421875 320.113281 477.535156 325.875 C 469.644531 331.628906 451.316406 332.484375 448.542969 331.628906 C 445.773438 330.777344 393.96875 306.253906 390.554688 294.097656 "/>
<path style=" stroke:none;fill-rule:nonzero;fill:rgb(92.939758%,81.17981%,66.268921%);fill-opacity:1;" d="M 420.242188 307.851562 C 424.15625 300.339844 434.34375 299.082031 440.441406 293.75 C 444.199219 290.453125 447.179688 286.378906 449.101562 281.820312 C 442.375 285.90625 433.90625 290.355469 425.515625 292.894531 C 416.523438 295.617188 407.734375 296.382812 401.113281 296.460938 C 405.558594 302.484375 412.9375 305.28125 420.242188 307.851562 "/>
<path style=" stroke:none;fill-rule:nonzero;fill:rgb(88.238525%,75.289917%,58.039856%);fill-opacity:1;" d="M 482.863281 286.636719 C 478.101562 278.4375 466.355469 272.296875 463.921875 271.078125 C 458.667969 273.710938 455.199219 277.648438 456.640625 283.4375 C 456.640625 285.386719 459.109375 286.34375 461.792969 287.066406 C 462.496094 289.871094 465.519531 292.628906 464.316406 296.234375 C 463.464844 297.9375 461.757812 299.644531 460.90625 299.644531 C 447.277344 303.539062 439.578125 314.355469 437.433594 326.441406 C 443.4375 329.429688 447.789062 331.394531 448.542969 331.628906 C 451.316406 332.484375 469.644531 331.628906 477.535156 325.875 C 485.421875 320.113281 488.195312 295.808594 482.863281 286.636719 "/>
<g clip-path="url(#clip2)" clip-rule="nonzero">
<path style=" stroke:none;fill-rule:nonzero;fill:rgb(92.549133%,79.219055%,62.348938%);fill-opacity:1;" d="M 509.796875 333.195312 C 508.839844 331.738281 507.390625 330.546875 505.632812 329.558594 C 500.347656 334.660156 485.550781 350.179688 481.371094 367.59375 C 478.8125 378.273438 475.109375 395.085938 472.050781 409.207031 C 477.292969 422.554688 479.738281 434.394531 480.515625 438.671875 L 487.558594 438.671875 C 497.382812 415.941406 516.226562 342.976562 509.796875 333.195312 "/>
</g>
<path style=" stroke:none;fill-rule:nonzero;fill:rgb(13.328552%,56.079102%,80.778503%);fill-opacity:1;" d="M 505.632812 329.558594 C 495.324219 323.789062 473.984375 325.230469 473.984375 325.230469 C 419.121094 326.65625 394.925781 294.742188 393.109375 292.714844 C 391.296875 290.691406 387.566406 291.011719 380.957031 289.625 C 374.347656 288.238281 367.847656 286.210938 362.945312 285.039062 C 358.042969 283.863281 352.527344 290.8125 348.90625 296.234375 C 335.835938 315.851562 331 353.949219 331 353.949219 C 331 353.949219 379.890625 348.265625 425.09375 359.347656 C 449.777344 365.40625 464.117188 389.019531 472.050781 409.207031 C 475.109375 395.085938 478.8125 378.273438 481.371094 367.59375 C 485.550781 350.179688 500.347656 334.660156 505.632812 329.558594 "/>
<path style=" stroke:none;fill-rule:nonzero;fill:rgb(22.349548%,60.389709%,83.529663%);fill-opacity:1;" d="M 377.902344 295.097656 C 393.402344 302.847656 408.90625 316.433594 425.863281 319.828125 C 404.277344 310.625 393.984375 297.136719 392.828125 295.839844 C 391.015625 293.816406 387.285156 294.132812 380.675781 292.753906 C 374.066406 291.367188 367.5625 289.335938 362.660156 288.164062 C 359.476562 287.402344 356.035156 290.070312 353.019531 293.511719 C 361.589844 293.710938 370.105469 291.195312 377.902344 295.097656 "/>
<path style=" stroke:none;fill-rule:nonzero;fill:rgb(10.5896%,52.159119%,76.078796%);fill-opacity:1;" d="M 473.984375 325.230469 C 462.296875 325.535156 452.007812 324.324219 443.027344 322.210938 C 436.480469 327.339844 426.925781 327.789062 418.269531 327.789062 C 416.5625 327.789062 414.003906 332.054688 410.589844 331.203125 C 391.832031 323.527344 371.367188 320.96875 357.71875 304.761719 C 356.011719 303.910156 353.460938 304.761719 351.753906 305.613281 C 351.753906 301.515625 352.292969 297.417969 350.316406 294.195312 C 349.820312 294.882812 349.351562 295.570312 348.90625 296.234375 C 335.835938 315.851562 331 353.949219 331 353.949219 C 331 353.949219 379.890625 348.265625 425.09375 359.347656 C 449.777344 365.40625 464.117188 389.019531 472.050781 409.207031 C 475.109375 395.085938 478.8125 378.273438 481.371094 367.59375 C 485.550781 350.179688 500.347656 334.660156 505.632812 329.558594 C 495.324219 323.789062 473.984375 325.230469 473.984375 325.230469 "/>
<path style=" stroke:none;fill-rule:nonzero;fill:rgb(92.549133%,79.219055%,62.348938%);fill-opacity:1;" d="M 347.488281 311.019531 C 347.488281 311.019531 347.488281 302.773438 348.90625 296.234375 C 348.90625 296.234375 343.226562 299.363281 342.941406 301.632812 C 342.941406 301.632812 340.664062 299.644531 336.6875 300.785156 C 332.707031 301.921875 333.558594 307.039062 331.289062 308.460938 C 329.011719 309.878906 326.453125 312.726562 327.023438 315.566406 C 327.59375 318.410156 323.328125 322.109375 325.035156 326.085938 C 326.734375 330.066406 338.394531 343.429688 341.804688 343.996094 C 345.21875 344.566406 348.90625 317.84375 347.488281 311.019531 "/>
<path style=" stroke:none;fill-rule:nonzero;fill:rgb(88.238525%,75.289917%,58.039856%);fill-opacity:1;" d="M 327.289062 312.984375 C 326.96875 313.820312 326.847656 314.691406 327.023438 315.566406 C 327.304688 316.980469 326.398438 318.601562 325.621094 320.367188 C 327.992188 319.09375 328.195312 318.410156 327.289062 312.984375 "/>
<path style=" stroke:none;fill-rule:nonzero;fill:rgb(88.238525%,75.289917%,58.039856%);fill-opacity:1;" d="M 342.765625 306.132812 C 342.148438 304.039062 342.742188 302.261719 343.410156 300.5625 C 343.15625 300.933594 342.984375 301.296875 342.941406 301.632812 C 342.941406 301.632812 341.757812 300.609375 339.617188 300.457031 C 339.582031 302.535156 341.105469 304.828125 342.765625 306.132812 "/>
<path style=" stroke:none;fill-rule:nonzero;fill:rgb(88.238525%,75.289917%,58.039856%);fill-opacity:1;" d="M 347.542969 308.589844 C 339.699219 311.140625 338.800781 320.59375 336.40625 327.789062 C 334.769531 332.691406 330.359375 330.992188 326.273438 328.230469 C 329.816406 333.53125 338.867188 343.507812 341.804688 343.996094 C 345.21875 344.566406 348.90625 317.84375 347.488281 311.019531 C 347.488281 311.019531 347.488281 310.070312 347.542969 308.589844 "/>
<path style=" stroke:none;fill-rule:nonzero;fill:rgb(88.238525%,75.289917%,58.039856%);fill-opacity:1;" d="M 334.316406 302.507812 C 332.972656 304.457031 332.917969 307.304688 331.382812 308.386719 C 331.988281 308.363281 332.585938 308.171875 332.992188 308.171875 C 334.273438 306.890625 334.113281 304.636719 334.316406 302.507812 "/>
<g clip-path="url(#clip3)" clip-rule="nonzero">
<path style=" stroke:none;fill-rule:nonzero;fill:rgb(10.5896%,28.62854%,27.449036%);fill-opacity:1;" d="M 465.03125 346.128906 C 450.105469 340.160156 306.839844 339.730469 288.933594 346.984375 C 272.695312 353.554688 275.03125 425.320312 275.613281 438.671875 L 480.9375 438.671875 C 481.894531 422.542969 479.367188 351.863281 465.03125 346.128906 "/>
</g>
<path style=" stroke:none;fill-rule:nonzero;fill:rgb(19.219971%,37.249756%,37.249756%);fill-opacity:1;" d="M 464.371094 348.984375 C 449.847656 343.75 310.375 343.371094 292.933594 349.734375 C 287.175781 351.835938 283.644531 361.53125 281.484375 373.574219 C 286.167969 368.953125 291.722656 365.277344 298.472656 363.585938 C 349.109375 350.113281 400.582031 360.589844 451.226562 359.09375 C 459.972656 358.628906 467.121094 361.039062 473.464844 365.074219 C 471.339844 356.648438 468.402344 350.4375 464.371094 348.984375 "/>
<path style=" stroke:none;fill-rule:nonzero;fill:rgb(5.099487%,16.468811%,14.118958%);fill-opacity:1;" d="M 465.03125 346.128906 C 454.636719 341.972656 382.015625 340.503906 332.820312 342.441406 C 356.582031 386.914062 408.917969 410.363281 461.265625 401.871094 C 468.007812 400.375 474.355469 402.773438 480.324219 407.03125 C 478.707031 381.199219 474.375 349.871094 465.03125 346.128906 "/>
<g clip-path="url(#clip4)" clip-rule="nonzero">
<path style=" stroke:none;fill-rule:nonzero;fill:rgb(10.5896%,28.62854%,27.449036%);fill-opacity:1;" d="M 233.078125 346.128906 C 218.152344 340.160156 74.886719 339.730469 56.980469 346.984375 C 40.742188 353.554688 41.683594 425.320312 42 438.671875 L 247.289062 438.671875 C 248.371094 422.542969 247.414062 351.863281 233.078125 346.128906 "/>
</g>
<path style=" stroke:none;fill-rule:nonzero;fill:rgb(19.219971%,37.249756%,37.249756%);fill-opacity:1;" d="M 230.71875 349.554688 C 216.1875 344.3125 76.714844 343.941406 59.28125 350.304688 C 53.519531 352.40625 49.984375 362.097656 47.824219 374.144531 C 52.507812 369.519531 58.066406 365.839844 64.8125 364.15625 C 115.457031 350.679688 166.929688 361.15625 217.566406 359.664062 C 226.3125 359.195312 233.460938 361.609375 239.8125 365.644531 C 237.6875 357.21875 234.746094 351.007812 230.71875 349.554688 "/>
<path style=" stroke:none;fill-rule:nonzero;fill:rgb(70.199585%,25.489807%,16.468811%);fill-opacity:1;" d="M 505.691406 305.425781 C 499.878906 306.605469 493.496094 308.246094 487.128906 310.523438 C 466.238281 317.984375 445.128906 327.789062 438.734375 330.777344 C 432.339844 333.761719 427.4375 332.914062 424.238281 333.121094 C 421.042969 333.335938 420.183594 336.957031 420.183594 336.957031 C 420.183594 336.957031 414.433594 333.335938 410.167969 333.121094 C 405.902344 332.914062 380.105469 327.367188 371.582031 323.527344 C 363.050781 319.691406 361.773438 314.78125 359.214844 315.210938 C 359.214844 315.210938 355.488281 308.226562 349.511719 309.027344 C 340.773438 310.199219 337.253906 334.902344 339.246094 342.289062 C 341.234375 349.683594 356.300781 358.5 368.242188 366.460938 C 380.179688 374.417969 400.074219 384.652344 419.691406 388.351562 C 439.304688 392.046875 499.707031 373.851562 512.074219 372.570312 C 512.90625 372.484375 513.691406 372.71875 514.421875 373.210938 C 509.105469 360.257812 501.683594 350.480469 498.855469 336.320312 C 496.605469 325.078125 499.011719 313.722656 505.691406 305.425781 "/>
<path style=" stroke:none;fill-rule:nonzero;fill:rgb(79.998779%,34.118652%,23.529053%);fill-opacity:1;" d="M 353.496094 326.117188 C 355.585938 325.472656 357.6875 326.222656 358.253906 327.367188 C 373.605469 339.308594 391.511719 337.601562 409.421875 341.867188 C 413.648438 342.710938 415.363281 346.078125 415.382812 351.125 C 418.125 347.636719 419.183594 342.414062 423.066406 339.308594 C 426.863281 337.132812 431.347656 335.996094 434.546875 333.476562 C 430.019531 334.722656 426.433594 334.238281 423.914062 334.398438 C 420.71875 334.613281 419.871094 338.238281 419.871094 338.238281 C 419.871094 338.238281 414.109375 334.613281 409.847656 334.398438 C 405.582031 334.191406 379.785156 328.644531 371.261719 324.808594 C 362.730469 320.96875 361.449219 316.0625 358.890625 316.488281 C 358.890625 316.488281 355.167969 309.507812 349.195312 310.308594 C 346.152344 310.714844 344.777344 314.019531 343.007812 318.410156 C 348.722656 316.15625 351.207031 320.609375 353.496094 326.117188 "/>
<path style=" stroke:none;fill-rule:nonzero;fill:rgb(65.489197%,20.779419%,15.689087%);fill-opacity:1;" d="M 505.25 355.941406 C 468.582031 387.5 411.445312 387.5 372.21875 356.789062 C 369.660156 354.230469 364.542969 353.382812 360.277344 350.824219 C 350.898438 346.554688 353.3125 335.539062 353.3125 326.15625 C 349.90625 332.128906 351.753906 342.289062 347.488281 343.148438 C 340.730469 344.492188 339.863281 333.007812 340.21875 323.929688 C 338.621094 331.011719 338.277344 338.699219 339.246094 342.289062 C 341.234375 349.683594 356.300781 358.5 368.242188 366.460938 C 380.179688 374.417969 399.933594 385.296875 419.546875 388.988281 C 439.164062 392.683594 499.707031 373.851562 512.074219 372.570312 C 512.90625 372.484375 513.691406 372.71875 514.421875 373.210938 C 511.859375 366.308594 508.710938 361.289062 505.886719 355.578125 C 505.683594 355.679688 505.46875 355.792969 505.25 355.941406 "/>
<path style=" stroke:none;fill-rule:nonzero;fill:rgb(65.489197%,20.779419%,15.689087%);fill-opacity:1;" d="M 487.128906 310.523438 C 470.625 316.417969 454 323.769531 444.582031 328.070312 C 444.703125 330.929688 445.253906 333.722656 446.410156 336.320312 C 450.675781 345.707031 484.785156 344.847656 470.289062 359.347656 C 476.253906 362.765625 485.636719 361.058594 486.488281 355.941406 C 487.023438 341.5625 490.542969 328.183594 499.132812 318.914062 C 500.335938 313.960938 502.527344 309.347656 505.691406 305.425781 C 499.878906 306.605469 493.496094 308.246094 487.128906 310.523438 "/>
<g clip-path="url(#clip5)" clip-rule="nonzero">
<path style=" stroke:none;fill-rule:nonzero;fill:rgb(86.669922%,39.99939%,30.589294%);fill-opacity:1;" d="M 733.792969 321.820312 C 731.230469 319.261719 694.566406 305.613281 694.566406 305.613281 C 694.566406 305.613281 691.15625 301.351562 676.230469 304.332031 C 661.3125 307.320312 622.078125 322.25 596.925781 320.96875 C 571.765625 319.691406 542.777344 302.203125 529.128906 302.417969 C 529.128906 302.417969 518.925781 302.726562 505.691406 305.425781 C 499.011719 313.722656 495.328125 324.222656 497.578125 335.472656 C 499.445312 344.820312 504.179688 352.398438 508.5 360.363281 C 510.722656 364.453125 512.621094 368.816406 514.421875 373.210938 C 524.550781 380.039062 525.292969 438.25 525.292969 438.25 C 525.292969 438.25 537.625 438.429688 556.441406 438.671875 L 704.335938 438.671875 C 704.394531 397.441406 708.355469 353.707031 735.050781 324.144531 C 734.640625 323.023438 734.222656 322.25 733.792969 321.820312 "/>
</g>
<path style=" stroke:none;fill-rule:nonzero;fill:rgb(77.648926%,32.159424%,22.349548%);fill-opacity:1;" d="M 520.605469 307.320312 C 522.011719 307.320312 523.421875 304.980469 524.351562 302.726562 C 520.121094 303.089844 513.425781 303.847656 505.691406 305.425781 C 502.179688 309.777344 499.515625 314.75 498.082031 320.109375 C 503.347656 313.921875 510.660156 309.378906 520.605469 307.320312 "/>
<g clip-path="url(#clip6)" clip-rule="nonzero">
<path style=" stroke:none;fill-rule:nonzero;fill:rgb(77.648926%,32.159424%,22.349548%);fill-opacity:1;" d="M 680.917969 337.171875 C 674.101562 333.761719 674.953125 324.378906 678.367188 317.554688 C 682.136719 311.511719 687.921875 306.820312 695.113281 305.820312 C 694.765625 305.6875 694.566406 305.613281 694.566406 305.613281 C 694.566406 305.613281 691.15625 301.351562 676.230469 304.332031 C 661.3125 307.320312 622.078125 322.25 596.925781 320.96875 C 571.765625 319.691406 542.777344 302.203125 529.128906 302.417969 C 529.128906 302.417969 528.667969 302.429688 527.824219 302.480469 C 525.589844 311.46875 532.9375 322.925781 538.511719 330.347656 C 540.214844 333.761719 541.921875 339.730469 540.214844 338.878906 C 527.421875 338.878906 523.15625 349.113281 517.191406 357.648438 C 515.484375 358.5 508.035156 354.328125 505.652344 355.6875 C 509.480469 361.371094 511.898438 367.074219 514.421875 373.210938 C 524.550781 380.039062 525.292969 438.25 525.292969 438.25 C 525.292969 438.25 537.625 438.429688 556.441406 438.671875 L 704.335938 438.671875 C 704.375 409 706.4375 378.03125 717.542969 351.984375 C 717.015625 351.015625 716.46875 350.054688 715.882812 349.113281 C 709.058594 338.03125 692.859375 343.148438 680.917969 337.171875 "/>
</g>
<g clip-path="url(#clip7)" clip-rule="nonzero">
<path style=" stroke:none;fill-rule:nonzero;fill:rgb(70.199585%,25.489807%,16.468811%);fill-opacity:1;" d="M 741.039062 370.011719 C 738.910156 344.09375 737.078125 329.714844 735.050781 324.144531 C 701.390625 349.113281 704.394531 397.441406 704.335938 438.671875 L 744.859375 438.671875 C 744.71875 434.425781 743.441406 399.214844 741.039062 370.011719 "/>
</g>
<g clip-path="url(#clip8)" clip-rule="nonzero">
<path style=" stroke:none;fill-rule:nonzero;fill:rgb(65.489197%,20.779419%,15.689087%);fill-opacity:1;" d="M 715.882812 349.113281 C 715.703125 348.816406 715.511719 348.539062 715.320312 348.265625 C 702.765625 374.152344 704.375 408.335938 704.335938 438.671875 L 725.664062 438.671875 C 725.984375 429.292969 726.476562 419.910156 726.972656 410.527344 C 727.828125 390.058594 726.972656 367.023438 715.882812 349.113281 "/>
</g>
<path style=" stroke:none;fill-rule:nonzero;fill:rgb(92.549133%,79.219055%,62.348938%);fill-opacity:1;" d="M 627.480469 242.785156 C 627.480469 242.785156 623.503906 252.164062 623.503906 262.398438 C 623.503906 272.640625 635.441406 280.027344 635.441406 280.027344 C 635.441406 280.027344 566.082031 286 565.800781 284.863281 C 565.511719 283.722656 570.628906 261.835938 566.9375 237.667969 C 563.234375 213.5 627.480469 240.511719 627.480469 242.785156 "/>
<path style=" stroke:none;fill-rule:nonzero;fill:rgb(88.238525%,75.289917%,58.039856%);fill-opacity:1;" d="M 623.503906 262.398438 C 623.503906 252.164062 627.480469 242.785156 627.480469 242.785156 C 627.480469 240.511719 563.234375 213.5 566.9375 237.667969 C 570.628906 261.835938 565.511719 283.722656 565.800781 284.863281 C 565.851562 285.058594 568.003906 285.042969 571.519531 284.875 C 574.644531 276.003906 574.945312 266.277344 574.324219 257 C 579.441406 258.707031 580.292969 264.675781 583.707031 268.085938 C 584.558594 264.675781 585.40625 261.261719 587.121094 257.851562 C 589.671875 262.117188 591.378906 266.382812 595.640625 268.941406 C 595.640625 264.675781 600.761719 263.824219 601.613281 259.558594 C 604.171875 262.96875 601.613281 268.085938 602.46875 268.941406 C 609.289062 270.644531 613.550781 262.117188 618.667969 257.851562 C 616.878906 266.230469 619.699219 273.765625 623.304688 281.054688 C 630.53125 280.449219 635.441406 280.027344 635.441406 280.027344 C 635.441406 280.027344 623.503906 272.640625 623.503906 262.398438 "/>
<path style=" stroke:none;fill-rule:nonzero;fill:rgb(92.549133%,79.219055%,62.348938%);fill-opacity:1;" d="M 560.890625 193.097656 C 560.890625 193.097656 551.742188 188.363281 549.875 197.097656 C 548.015625 205.828125 554.5625 222.667969 560.8125 217.292969 C 567.0625 211.910156 560.890625 193.097656 560.890625 193.097656 "/>
<path style=" stroke:none;fill-rule:nonzero;fill:rgb(92.549133%,79.219055%,62.348938%);fill-opacity:1;" d="M 642.757812 211.429688 C 642.757812 211.429688 653.015625 210.453125 651.484375 219.253906 C 649.957031 228.050781 637.59375 241.230469 633.804688 233.910156 C 630.011719 226.585938 642.757812 211.429688 642.757812 211.429688 "/>
<path style=" stroke:none;fill-rule:nonzero;fill:rgb(30.979919%,23.139954%,23.919678%);fill-opacity:1;" d="M 633.167969 140.144531 C 633.167969 140.144531 620.804688 122.234375 599.054688 126.5 C 583.121094 129.621094 578.589844 139.722656 578.589844 139.722656 C 578.589844 139.722656 557.695312 141.429688 554.28125 170.851562 C 550.875 200.28125 562.386719 235.675781 567.5 243.777344 C 572.617188 251.882812 584.984375 260.410156 584.984375 260.410156 C 584.984375 260.410156 585.835938 255.71875 587.542969 251.882812 C 587.542969 251.882812 590.101562 261.6875 592.660156 261.6875 C 595.21875 261.6875 605.878906 254.441406 605.878906 254.441406 L 607.578125 261.6875 C 607.578125 261.6875 622.507812 254.871094 635.726562 236.953125 C 648.945312 219.042969 658.746094 192.179688 658.320312 179.808594 C 657.898438 167.4375 652.78125 148.675781 648.085938 145.265625 C 643.398438 141.851562 633.167969 140.144531 633.167969 140.144531 "/>
<path style=" stroke:none;fill-rule:nonzero;fill:rgb(35.289001%,29.40979%,30.198669%);fill-opacity:1;" d="M 610.347656 135.765625 C 604.324219 135.765625 598.292969 137.277344 594.523438 141.796875 C 602.820312 137.277344 616.375 138.78125 619.390625 147.820312 C 620.210938 142.484375 624.398438 140.726562 629.125 139.992188 C 626.269531 136.515625 615.976562 125.8125 599.804688 128.984375 C 586.753906 131.539062 582.359375 139.382812 581.789062 140.523438 C 590.394531 136.054688 600.683594 133.691406 610.347656 135.765625 "/>
<path style=" stroke:none;fill-rule:nonzero;fill:rgb(35.289001%,29.40979%,30.198669%);fill-opacity:1;" d="M 584.28125 201.777344 C 584.523438 203.714844 584.894531 205.640625 585.40625 207.53125 C 584.929688 205.601562 584.585938 203.679688 584.28125 201.777344 "/>
<path style=" stroke:none;fill-rule:nonzero;fill:rgb(35.289001%,29.40979%,30.198669%);fill-opacity:1;" d="M 631.460938 150.382812 C 637.957031 150.382812 643.839844 154.03125 650.667969 154.644531 C 648.414062 146.84375 638.050781 144.519531 631.460938 150.382812 "/>
<path style=" stroke:none;fill-rule:nonzero;fill:rgb(35.289001%,29.40979%,30.198669%);fill-opacity:1;" d="M 596.496094 191.320312 C 593.847656 194.507812 593.171875 198.34375 593.042969 202.226562 C 598.355469 211.722656 607.578125 219.257812 607.578125 231.414062 C 608.4375 228 609.289062 223.738281 608.4375 220.324219 C 604.171875 210.941406 593.9375 203.265625 596.496094 191.320312 "/>
<path style=" stroke:none;fill-rule:nonzero;fill:rgb(35.289001%,29.40979%,30.198669%);fill-opacity:1;" d="M 613.550781 189.613281 C 610.144531 190.472656 613.550781 198.148438 613.550781 203.265625 C 620.375 198.148438 623.785156 209.238281 625.492188 213.5 C 631.710938 206.5 630.128906 198.789062 629.160156 191.019531 C 627.628906 195.808594 628.105469 201.664062 624.640625 205.824219 C 620.375 200.707031 618.667969 187.914062 613.550781 189.613281 "/>
<path style=" stroke:none;fill-rule:nonzero;fill:rgb(35.289001%,29.40979%,30.198669%);fill-opacity:1;" d="M 617.8125 165.734375 C 624.640625 166.585938 629.757812 170.851562 635.726562 173.410156 C 636.167969 171.625 636.136719 170.074219 635.652344 168.636719 C 630.851562 164.429688 623.457031 163.617188 617.8125 165.734375 "/>
<path style=" stroke:none;fill-rule:nonzero;fill:rgb(35.289001%,29.40979%,30.198669%);fill-opacity:1;" d="M 579.441406 182.796875 C 579.441406 172.5625 583.707031 159.769531 594.789062 158.058594 C 590.523438 151.234375 582 146.117188 574.324219 146.96875 C 570.515625 148.058594 567.40625 150.542969 565.207031 153.75 C 572.371094 150.71875 585.871094 149.25 585.09375 156.246094 C 583.386719 169.039062 569.207031 178.527344 569.207031 193.03125 C 570.914062 187.914062 577.734375 181.945312 581.148438 187.914062 C 582.984375 192.195312 583.503906 196.921875 584.28125 201.777344 C 583.304688 194.0625 584.386719 186.023438 587.121094 178.527344 C 584.558594 179.378906 582 181.085938 579.441406 182.796875 "/>
<path style=" stroke:none;fill-rule:nonzero;fill:rgb(26.669312%,17.649841%,17.649841%);fill-opacity:1;" d="M 658.320312 179.808594 C 658.082031 172.90625 656.386719 164.015625 654.117188 156.910156 C 653.390625 159.726562 651.984375 162.195312 649.367188 164.027344 C 645.957031 166.585938 641.699219 160.617188 636.574219 160.617188 C 639.132812 165.734375 643.398438 171.703125 639.984375 177.679688 C 636.574219 183.644531 633.167969 172.5625 627.195312 173.410156 C 632.316406 187.914062 638.28125 208.382812 623.785156 219.472656 C 622.933594 214.355469 622.078125 209.238281 617.8125 204.972656 C 619.523438 212.648438 619.523438 220.324219 616.960938 227.148438 C 615.261719 232.265625 605.878906 237.382812 604.171875 233.96875 C 599.90625 227.148438 599.054688 218.617188 593.9375 210.941406 C 593.085938 215.207031 591.378906 222.03125 587.972656 221.175781 C 576.882812 217.765625 577.734375 199.855469 577.734375 188.761719 C 575.179688 193.878906 569.207031 196.4375 567.5 202.414062 C 563.234375 185.355469 566.652344 165.734375 583.707031 156.351562 C 575.179688 158.910156 565.800781 160.617188 559.828125 166.585938 C 559.054688 160.382812 560.046875 154.351562 562.558594 149.140625 C 558.769531 153.765625 555.472656 160.628906 554.28125 170.851562 C 550.875 200.28125 562.386719 235.675781 567.5 243.777344 C 572.617188 251.882812 584.984375 260.410156 584.984375 260.410156 C 584.984375 260.410156 585.835938 255.71875 587.542969 251.882812 C 587.542969 251.882812 590.101562 261.6875 592.660156 261.6875 C 595.21875 261.6875 605.878906 254.441406 605.878906 254.441406 L 607.578125 261.6875 C 607.578125 261.6875 622.507812 254.871094 635.726562 236.953125 C 648.945312 219.042969 658.746094 192.179688 658.320312 179.808594 "/>
<path style=" stroke:none;fill-rule:nonzero;fill:rgb(21.958923%,12.159729%,11.369324%);fill-opacity:1;" d="M 644.25 211.789062 C 644.25 207.53125 642.546875 204.121094 639.984375 200.707031 C 638.710938 218.828125 631.460938 238.234375 616.960938 246.765625 C 616.109375 247.617188 618.667969 239.085938 616.109375 239.941406 C 610.144531 243.351562 603.320312 251.027344 596.496094 246.765625 C 594.789062 245.910156 593.085938 242.5 593.085938 239.941406 C 590.523438 240.792969 588.824219 246.765625 585.40625 244.207031 C 576.882812 238.234375 571.765625 227.148438 571.765625 216.058594 C 570.066406 217.765625 568.144531 223.945312 567.292969 225.65625 C 557.796875 218.796875 555.894531 204.199219 554.203125 193.644531 C 556.253906 216.34375 563.667969 237.710938 567.5 243.777344 C 572.617188 251.882812 584.984375 260.410156 584.984375 260.410156 C 584.984375 260.410156 585.835938 255.71875 587.542969 251.882812 C 587.542969 251.882812 590.101562 261.6875 592.660156 261.6875 C 595.21875 261.6875 605.878906 254.441406 605.878906 254.441406 L 607.578125 261.6875 C 607.578125 261.6875 622.507812 254.871094 635.726562 236.953125 C 644.980469 224.410156 652.554688 207.484375 656.128906 194.214844 C 652.730469 200.351562 648.914062 206.285156 644.25 211.789062 "/>
<path style=" stroke:none;fill-rule:nonzero;fill:rgb(26.669312%,17.649841%,17.649841%);fill-opacity:1;" d="M 610.144531 168.292969 C 615.261719 158.910156 626.34375 162.320312 634.867188 164.886719 C 632.316406 152.9375 616.960938 150.382812 607.578125 155.5 C 607.167969 155.914062 606.363281 156.527344 605.726562 157.339844 C 601.628906 151.347656 594.378906 147.222656 587.121094 148.675781 C 593.9375 149.527344 599.054688 154.652344 601.613281 160.617188 C 590.523438 158.910156 583.707031 168.292969 583.707031 177.679688 C 587.972656 172.5625 593.9375 170.851562 599.90625 170.851562 C 585.40625 175.113281 586.265625 193.03125 588.824219 204.972656 C 588.824219 195.589844 595.640625 187.914062 601.613281 181.085938 C 594.789062 193.03125 600.761719 206.671875 609.289062 216.058594 C 613.550781 220.324219 610.996094 223.738281 610.144531 228 C 614.410156 222.03125 616.109375 215.207031 613.550781 208.382812 C 610.996094 198.996094 599.90625 187.0625 609.289062 181.945312 C 618.667969 175.96875 621.226562 192.179688 622.078125 200.707031 C 629.757812 189.613281 624.640625 169.144531 610.144531 168.292969 "/>
<path style=" stroke:none;fill-rule:nonzero;fill:rgb(16.468811%,6.269836%,6.269836%);fill-opacity:1;" d="M 628.621094 162.609375 C 628.742188 162.703125 626.96875 159.222656 622.601562 158.464844 C 618.410156 157.75 615.203125 159.175781 615.261719 159.191406 C 615.265625 159.304688 618.566406 158.664062 622.433594 159.34375 C 626.382812 159.976562 628.558594 162.699219 628.621094 162.609375 "/>
<path style=" stroke:none;fill-rule:nonzero;fill:rgb(16.468811%,6.269836%,6.269836%);fill-opacity:1;" d="M 586.832031 172.84375 C 586.945312 173.011719 589.347656 169.164062 594.203125 167.511719 C 599.003906 165.808594 603.355469 166.6875 603.320312 166.585938 C 603.433594 166.558594 599.09375 164.867188 593.90625 166.664062 C 588.636719 168.515625 586.792969 172.996094 586.832031 172.84375 "/>
<path style=" stroke:none;fill-rule:nonzero;fill:rgb(16.468811%,6.269836%,6.269836%);fill-opacity:1;" d="M 588.535156 201.84375 C 588.753906 201.90625 589.300781 193.632812 592.792969 184.316406 C 594.574219 179.703125 597.269531 175.941406 600.070312 174.28125 C 602.847656 172.5625 605.066406 172.882812 605.023438 172.84375 C 605.09375 172.8125 602.847656 172.226562 599.816406 173.847656 C 596.773438 175.394531 593.773438 179.261719 591.957031 183.988281 C 588.386719 193.546875 588.613281 201.894531 588.535156 201.84375 "/>
<path style=" stroke:none;fill-rule:nonzero;fill:rgb(16.468811%,6.269836%,6.269836%);fill-opacity:1;" d="M 623.214844 195.019531 C 623.144531 195.074219 623.710938 188.976562 620.847656 182.109375 C 618.042969 174.96875 611.789062 172.480469 611.84375 172.84375 C 611.835938 172.691406 617.382812 175.648438 620.027344 182.46875 C 622.792969 189.054688 623 195.070312 623.214844 195.019531 "/>
<path style=" stroke:none;fill-rule:nonzero;fill:rgb(16.468811%,6.269836%,6.269836%);fill-opacity:1;" d="M 611.5625 226.578125 C 611.46875 226.589844 612.53125 223.828125 611.914062 219.257812 C 611.34375 214.691406 609.078125 208.78125 606.824219 202.277344 C 604.507812 195.785156 602.828125 189.726562 603.375 185.210938 C 603.75 180.675781 605.914062 178.476562 605.878906 178.527344 C 605.878906 178.410156 603.476562 180.496094 602.878906 185.152344 C 602.101562 189.761719 603.660156 196.085938 605.980469 202.570312 C 608.246094 209.109375 610.65625 214.894531 611.421875 219.335938 C 612.230469 223.773438 611.40625 226.566406 611.5625 226.578125 "/>
<path style=" stroke:none;fill-rule:nonzero;fill:rgb(70.199585%,25.489807%,16.468811%);fill-opacity:1;" d="M 526.566406 302.632812 C 526.566406 302.632812 529.128906 297.085938 531.96875 295.378906 C 534.816406 293.675781 536.234375 296.234375 536.234375 296.234375 C 536.234375 296.234375 541.921875 285.714844 547.894531 282.304688 C 553.859375 278.890625 560.683594 282.304688 560.683594 282.304688 C 560.683594 282.304688 562.960938 272.351562 565.230469 271.214844 C 567.5 270.082031 576.882812 268.371094 591.097656 272.351562 C 605.308594 276.332031 607.578125 277.1875 615.824219 274.339844 C 624.066406 271.5 632.886719 268.65625 638.570312 272.640625 C 644.25 276.617188 644.539062 282.304688 644.539062 282.304688 C 644.539062 282.304688 656.476562 278.890625 663.292969 283.4375 C 670.117188 287.992188 672.964844 291.6875 672.964844 291.6875 C 672.964844 291.6875 677.511719 288.558594 678.644531 292.539062 C 679.78125 296.515625 679.5 297.085938 685.753906 297.9375 C 692.007812 298.792969 695.136719 301.351562 694.566406 305.613281 C 694.566406 305.613281 685.472656 299.933594 679.21875 311.019531 C 672.964844 322.109375 649.085938 372.710938 609.003906 373 C 568.925781 373.28125 529.980469 312.867188 526.566406 302.632812 "/>
<path style=" stroke:none;fill-rule:nonzero;fill:rgb(73.329163%,32.159424%,20.779419%);fill-opacity:1;" d="M 648.515625 329.496094 C 619.523438 342.289062 585.40625 338.878906 558.121094 324.378906 C 575.179688 338.03125 595.640625 349.113281 618.667969 347.40625 C 641.574219 345.710938 660.253906 329.667969 669.683594 307.664062 C 669.164062 307.832031 668.648438 308.003906 668.128906 308.171875 C 659.605469 314.144531 657.046875 325.230469 648.515625 329.496094 "/>
<path style=" stroke:none;fill-rule:nonzero;fill:rgb(73.329163%,32.159424%,20.779419%);fill-opacity:1;" d="M 562.386719 309.878906 C 584.558594 324.378906 610.996094 332.054688 634.023438 319.261719 C 644.25 314.144531 653.632812 307.320312 660.453125 298.792969 C 663.011719 297.085938 664.71875 291.96875 662.15625 288.558594 C 651.929688 280.027344 639.984375 290.261719 628.902344 287.703125 C 629.757812 283.4375 631.460938 279.175781 634.023438 275.761719 C 619.523438 291.96875 593.9375 288.558594 576.03125 275.761719 C 574.894531 274.628906 572.625 273.125 570.476562 273.5 C 570.945312 281.660156 578.054688 288.226562 584.558594 291.117188 C 602.46875 299.644531 620.375 289.410156 638.28125 288.558594 C 639.984375 304.761719 620.375 308.171875 608.4375 309.878906 C 613.550781 312.4375 623.785156 316.703125 616.960938 319.261719 C 593.085938 329.496094 574.324219 303.910156 554.710938 291.96875 C 553.859375 298.792969 556.417969 305.613281 562.386719 309.878906 "/>
<path style=" stroke:none;fill-rule:nonzero;fill:rgb(65.489197%,20.779419%,15.689087%);fill-opacity:1;" d="M 639.308594 273.203125 C 640.152344 277.710938 640.03125 282.101562 637.433594 286 C 641.453125 286.445312 643.839844 284.308594 646.054688 281.9375 C 645.101562 282.140625 644.539062 282.304688 644.539062 282.304688 C 644.539062 282.304688 644.265625 277.128906 639.308594 273.203125 "/>
<path style=" stroke:none;fill-rule:nonzero;fill:rgb(65.489197%,20.779419%,15.689087%);fill-opacity:1;" d="M 668.128906 297.085938 C 670.570312 295.253906 672.574219 292.988281 674.457031 290.910156 C 673.601562 291.246094 672.964844 291.6875 672.964844 291.6875 C 672.964844 291.6875 672.179688 290.667969 670.460938 289.054688 C 670.882812 291.863281 669.503906 293.644531 668.128906 297.085938 "/>
<path style=" stroke:none;fill-rule:nonzero;fill:rgb(65.489197%,20.779419%,15.689087%);fill-opacity:1;" d="M 633.183594 270.769531 C 628.027344 270.25 621.777344 272.289062 615.824219 274.339844 C 607.578125 277.1875 605.308594 276.332031 591.097656 272.351562 C 582.859375 270.046875 576.261719 269.652344 571.710938 269.949219 C 581.910156 271.789062 588.953125 281.273438 599.054688 283.4375 C 612.570312 286.621094 621.644531 275.710938 633.183594 270.769531 "/>
<path style=" stroke:none;fill-rule:nonzero;fill:rgb(65.489197%,20.779419%,15.689087%);fill-opacity:1;" d="M 674.101562 311.585938 C 665.570312 336.320312 641.699219 347.40625 619.523438 349.113281 C 588.824219 350.824219 548.738281 336.320312 537.65625 305.613281 C 564.09375 323.527344 596.496094 340.589844 628.902344 328.644531 C 644.25 321.820312 656.195312 309.878906 668.128906 298.792969 C 650.222656 311.585938 630.609375 325.230469 608.4375 327.789062 C 583.707031 330.347656 557.269531 315.851562 547.035156 291.96875 C 544.476562 285.144531 557.269531 282.585938 562.386719 287.703125 C 576.03125 299.644531 588.824219 315.851562 608.4375 316.703125 C 604.171875 314.144531 599.054688 312.4375 596.496094 307.320312 C 611.84375 308.171875 624.640625 298.792969 635.726562 290.261719 C 622.933594 294.527344 609.289062 303.054688 595.640625 298.792969 C 583.78125 294.835938 561.664062 287.941406 563.957031 272.667969 C 562.183594 275.742188 560.683594 282.304688 560.683594 282.304688 C 560.683594 282.304688 553.859375 278.890625 547.894531 282.304688 C 541.921875 285.714844 536.234375 296.234375 536.234375 296.234375 C 536.234375 296.234375 534.816406 293.675781 531.96875 295.378906 C 529.128906 297.085938 526.566406 302.632812 526.566406 302.632812 C 529.980469 312.867188 568.925781 373.28125 609.003906 373 C 649.085938 372.710938 672.964844 322.109375 679.21875 311.019531 C 683.054688 304.214844 687.953125 303.730469 691.175781 304.367188 C 684.988281 300.804688 676.113281 304.875 674.101562 311.585938 "/>
<path style=" stroke:none;fill-rule:nonzero;fill:rgb(60.389709%,15.689087%,14.509583%);fill-opacity:1;" d="M 536.234375 296.234375 C 536.296875 296.101562 540.960938 303.476562 552.230469 311.351562 C 563.367188 319.132812 580.777344 327.824219 601.625 330.445312 C 612.246094 332.09375 621.953125 327.726562 630.035156 324.097656 C 638.199219 320.210938 645.164062 315.988281 650.914062 312.324219 C 662.394531 304.929688 668.992188 299.652344 668.984375 299.644531 C 668.945312 299.589844 662.210938 304.6875 650.652344 311.898438 C 644.851562 315.464844 637.855469 319.59375 629.703125 323.394531 C 621.605469 326.949219 612.078125 331.183594 601.714844 329.554688 C 581.097656 326.964844 563.703125 318.511719 552.523438 310.9375 C 541.195312 303.28125 536.359375 296.066406 536.234375 296.234375 "/>
<path style=" stroke:none;fill-rule:nonzero;fill:rgb(60.389709%,15.689087%,14.509583%);fill-opacity:1;" d="M 603.890625 313.007812 C 603.917969 312.890625 600.828125 312.707031 596.503906 310.527344 C 592.148438 308.429688 586.78125 304.378906 581.292969 299.4375 C 570.601562 289.222656 561.132812 281.609375 560.683594 282.304688 C 561.113281 281.785156 569.941406 289.839844 580.699219 300.105469 C 586.21875 305.070312 591.773438 309.039062 596.289062 310.984375 C 600.785156 313.011719 603.921875 312.957031 603.890625 313.007812 "/>
<path style=" stroke:none;fill-rule:nonzero;fill:rgb(60.389709%,15.689087%,14.509583%);fill-opacity:1;" d="M 586.265625 303.625 C 585.941406 303.804688 597.472656 308.035156 610.761719 302.699219 C 623.871094 298.066406 632.644531 290.785156 632.597656 290.832031 C 632.542969 290.679688 623.386719 297.300781 610.46875 301.847656 C 597.449219 307.101562 586.113281 303.6875 586.265625 303.625 "/>
<path style=" stroke:none;fill-rule:nonzero;fill:rgb(60.389709%,15.689087%,14.509583%);fill-opacity:1;" d="M 420.183594 336.957031 C 420.195312 336.941406 417.300781 341.550781 415.585938 348.003906 C 413.746094 354.472656 414.667969 360.003906 414.855469 359.917969 C 414.816406 359.917969 414.652344 354.542969 416.449219 348.234375 C 418.125 341.917969 420.316406 337.015625 420.183594 336.957031 "/>
<path style=" stroke:none;fill-rule:nonzero;fill:rgb(60.389709%,15.689087%,14.509583%);fill-opacity:1;" d="M 353.667969 346.128906 C 353.675781 346.148438 352.324219 338.828125 353.246094 329.867188 C 353.640625 320.585938 359.054688 314.96875 359.214844 315.210938 C 359.0625 314.714844 352.773438 320.214844 352.355469 329.773438 C 351.414062 338.9375 353.539062 346.210938 353.667969 346.128906 "/>
<path style=" stroke:none;fill-rule:nonzero;fill:rgb(60.389709%,15.689087%,14.509583%);fill-opacity:1;" d="M 514.3125 373.105469 C 514.480469 373.09375 511.019531 362.027344 503.183594 350.457031 C 494.808594 338.953125 497.101562 326.277344 496.882812 326.617188 C 496.980469 326.171875 493.96875 339.0625 502.519531 350.917969 C 510.320312 362.425781 514.339844 373.09375 514.3125 373.105469 "/>
<path style=" stroke:none;fill-rule:nonzero;fill:rgb(60.389709%,15.689087%,14.509583%);fill-opacity:1;" d="M 708.023438 368.433594 C 707.953125 368.410156 710.335938 359.0625 715.871094 348.558594 C 721.132812 337.960938 727.894531 329.683594 727.828125 329.636719 C 727.777344 329.597656 720.371094 337.492188 715.066406 348.15625 C 709.492188 358.75 707.796875 368.4375 708.023438 368.433594 "/>
<g clip-path="url(#clip9)" clip-rule="nonzero">
<path style=" stroke:none;fill-rule:nonzero;fill:rgb(10.5896%,28.62854%,27.449036%);fill-opacity:1;" d="M 706.078125 346.128906 C 691.15625 340.160156 547.894531 339.730469 529.980469 346.984375 C 513.746094 353.554688 516.085938 425.320312 516.660156 438.671875 L 721.988281 438.671875 C 722.941406 422.542969 720.414062 351.863281 706.078125 346.128906 "/>
</g>
<g clip-path="url(#clip10)" clip-rule="nonzero">
<path style=" stroke:none;fill-rule:nonzero;fill:rgb(10.5896%,28.62854%,27.449036%);fill-opacity:1;" d="M 945.707031 346.128906 C 930.785156 340.160156 787.519531 339.730469 769.613281 346.984375 C 753.375 353.554688 755.714844 425.320312 756.289062 438.671875 L 961.617188 438.671875 C 962.574219 422.542969 960.046875 351.863281 945.707031 346.128906 "/>
</g>
<path style=" stroke:none;fill-rule:nonzero;fill:rgb(65.879822%,50.19989%,14.118958%);fill-opacity:1;" d="M 466.878906 281.09375 C 466.878906 281.09375 457.285156 282.371094 457.285156 275.125 C 457.285156 267.871094 460.269531 265.742188 460.269531 265.742188 C 460.269531 265.742188 458.992188 262.96875 461.335938 261.261719 C 461.335938 261.261719 461.121094 251.453125 466.449219 245.695312 C 466.449219 245.695312 470.925781 228.851562 486.914062 216.699219 C 502.90625 204.542969 515.484375 201.554688 523.585938 203.265625 C 531.6875 204.972656 535.523438 207.316406 538.933594 207.953125 C 542.347656 208.59375 552.367188 210.941406 554.503906 214.777344 C 556.625 218.617188 560.464844 217.550781 562.175781 223.308594 C 563.878906 229.0625 563.234375 230.773438 563.234375 230.773438 C 563.234375 230.773438 569.84375 240.578125 566.863281 250.8125 C 566.863281 250.8125 568.78125 259.988281 566.4375 264.675781 C 564.09375 269.363281 562.597656 271.5 561.960938 274.910156 C 561.320312 278.320312 557.269531 283.863281 549.808594 283.4375 C 549.808594 283.4375 544.691406 291.753906 536.804688 294.3125 C 528.914062 296.871094 519.324219 308.601562 502.90625 305.191406 C 486.488281 301.773438 469.007812 294.742188 466.878906 281.09375 "/>
<path style=" stroke:none;fill-rule:nonzero;fill:rgb(75.289917%,58.81958%,20.779419%);fill-opacity:1;" d="M 479.667969 251.882812 C 477.945312 242.117188 478.546875 231.582031 483.027344 223.136719 C 475.140625 230.851562 468.824219 243.203125 479.667969 251.882812 "/>
<path style=" stroke:none;fill-rule:nonzero;fill:rgb(75.289917%,58.81958%,20.779419%);fill-opacity:1;" d="M 533.394531 220.324219 C 531.480469 218.40625 536.71875 214.585938 541.632812 212.066406 C 530.449219 210.601562 518.558594 218.636719 514.632812 228.851562 C 524.011719 223.738281 534.246094 224.589844 544.476562 224.589844 C 540.214844 225.441406 535.949219 224.589844 533.394531 229.707031 C 540.214844 223.738281 558.121094 231.414062 556.417969 223.738281 C 553.859375 216.90625 539.363281 225.441406 533.394531 220.324219 "/>
<path style=" stroke:none;fill-rule:nonzero;fill:rgb(75.289917%,58.81958%,20.779419%);fill-opacity:1;" d="M 511.222656 278.320312 C 511.222656 283.4375 515.484375 286.851562 519.75 288.558594 C 526.199219 290.171875 531.890625 291.015625 537.535156 287.5 C 528.234375 287.753906 519.117188 283.351562 511.222656 278.320312 "/>
<path style=" stroke:none;fill-rule:nonzero;fill:rgb(75.289917%,58.81958%,20.779419%);fill-opacity:1;" d="M 550.710938 274.695312 C 540.128906 275.339844 529.644531 274.035156 519.75 269.792969 C 527.1875 277.238281 542.417969 282.074219 550.710938 274.695312 "/>
<path style=" stroke:none;fill-rule:nonzero;fill:rgb(75.289917%,58.81958%,20.779419%);fill-opacity:1;" d="M 550.851562 237.128906 C 538.675781 237.96875 526.742188 244.019531 517.191406 251.027344 C 531.6875 255.292969 546.179688 262.96875 562.386719 258.707031 C 554.710938 252.734375 537.65625 257 538.511719 247.617188 C 539.050781 242.207031 544.40625 238.851562 550.851562 237.128906 "/>
<path style=" stroke:none;fill-rule:nonzero;fill:rgb(75.289917%,58.81958%,20.779419%);fill-opacity:1;" d="M 496.726562 233.96875 C 499.242188 222.621094 505.960938 211.75 516.175781 206.5 C 503.734375 209.496094 492.644531 220.375 496.726562 233.96875 "/>
<path style=" stroke:none;fill-rule:nonzero;fill:rgb(57.249451%,41.178894%,13.729858%);fill-opacity:1;" d="M 523.15625 208.382812 C 528.53125 206.363281 533.902344 208.046875 539.277344 208.019531 C 539.164062 207.996094 539.042969 207.976562 538.933594 207.953125 C 535.839844 207.378906 532.390625 205.394531 525.742188 203.761719 C 526.160156 205.371094 523.84375 206.328125 523.15625 208.382812 "/>
<path style=" stroke:none;fill-rule:nonzero;fill:rgb(57.249451%,41.178894%,13.729858%);fill-opacity:1;" d="M 547.035156 217.765625 C 550.542969 216.59375 553.652344 216.625 556.902344 217.3125 C 556.011719 216.710938 555.171875 215.988281 554.503906 214.777344 C 554.140625 214.136719 553.550781 213.539062 552.824219 212.980469 C 551.007812 214.6875 548.445312 215.652344 547.035156 217.765625 "/>
<path style=" stroke:none;fill-rule:nonzero;fill:rgb(57.249451%,41.178894%,13.729858%);fill-opacity:1;" d="M 557.269531 230.558594 C 560.125 231.703125 562.976562 232.84375 565.320312 234.757812 C 564.261719 232.292969 563.234375 230.773438 563.234375 230.773438 C 563.234375 230.773438 563.523438 229.988281 563.191406 227.71875 C 561.828125 229.148438 559.554688 230.101562 557.269531 230.558594 "/>
<path style=" stroke:none;fill-rule:nonzero;fill:rgb(57.249451%,41.178894%,13.729858%);fill-opacity:1;" d="M 567.546875 256.199219 C 567.367188 253.222656 566.863281 250.8125 566.863281 250.8125 C 567.113281 249.964844 567.289062 249.125 567.410156 248.292969 C 565.589844 249.667969 562.910156 250.546875 560.683594 251.882812 C 563.839844 252.332031 566.042969 253.984375 567.546875 256.199219 "/>
<path style=" stroke:none;fill-rule:nonzero;fill:rgb(57.249451%,41.178894%,13.729858%);fill-opacity:1;" d="M 557.269531 269.792969 C 559.015625 270.667969 560.976562 272.210938 562.144531 274.074219 C 562.8125 271.296875 564.125 269.230469 566.066406 265.414062 C 563.667969 267.917969 560.65625 269.792969 557.269531 269.792969 "/>
<path style=" stroke:none;fill-rule:nonzero;fill:rgb(57.249451%,41.178894%,13.729858%);fill-opacity:1;" d="M 513.777344 263.824219 C 527.421875 264.675781 542.777344 274.910156 555.566406 263.824219 C 539.363281 262.96875 523.15625 260.410156 508.660156 252.734375 C 517.191406 238.234375 536.804688 237.382812 551.300781 231.414062 C 537.65625 228.851562 524.011719 236.53125 511.222656 233.96875 C 507.808594 233.117188 512.074219 222.03125 516.339844 216.90625 C 505.25 220.324219 501.839844 236.53125 494.167969 242.5 C 487.34375 247.617188 488.195312 230.558594 489.050781 223.738281 C 477.113281 232.265625 489.050781 250.175781 479.667969 257 C 473.015625 261.433594 467.652344 251.132812 467.449219 242.753906 C 466.742188 244.597656 466.449219 245.695312 466.449219 245.695312 C 466.34375 245.808594 466.242188 245.925781 466.148438 246.042969 C 465.171875 253.675781 465.863281 262.105469 473.695312 266.382812 C 468.964844 265.199219 463.402344 261.953125 461.59375 257.511719 C 461.300781 259.726562 461.335938 261.261719 461.335938 261.261719 C 458.992188 262.96875 460.269531 265.742188 460.269531 265.742188 C 460.269531 265.742188 457.285156 267.871094 457.285156 275.125 C 457.285156 282.371094 466.878906 281.09375 466.878906 281.09375 C 469.007812 294.742188 486.488281 301.773438 502.90625 305.191406 C 507.019531 306.042969 510.699219 305.945312 514.039062 305.28125 C 513.878906 304.230469 513.523438 303.195312 512.925781 302.203125 C 508.660156 295.378906 495.019531 292.820312 498.425781 281.734375 C 502.664062 291.417969 513.335938 299.796875 524.65625 301.121094 C 529.011719 298.671875 532.667969 295.914062 536 294.605469 C 526.628906 296.230469 517.078125 296.394531 509.515625 289.410156 C 506.105469 286 502.691406 280.882812 504.394531 275.761719 C 506.105469 273.207031 509.515625 273.207031 512.074219 274.910156 C 523.714844 282.671875 536.066406 284.777344 549.121094 284.453125 C 549.570312 283.824219 549.808594 283.4375 549.808594 283.4375 C 554.070312 283.683594 557.210938 281.976562 559.246094 279.839844 C 542.535156 286.371094 520.757812 279.328125 513.777344 263.824219 "/>
<path style=" stroke:none;fill-rule:nonzero;fill:rgb(52.549744%,36.859131%,10.978699%);fill-opacity:1;" d="M 495.867188 291.96875 C 495.019531 288.558594 490.753906 287.703125 489.902344 284.292969 C 488.195312 280.027344 490.753906 274.910156 494.167969 274.058594 C 498.425781 273.207031 497.578125 282.585938 502.691406 284.292969 C 500.132812 280.027344 500.132812 274.058594 500.984375 269.792969 C 501.839844 263.824219 510.367188 269.792969 514.632812 271.5 C 512.074219 267.234375 505.25 268.085938 504.394531 262.117188 C 509.515625 261.261719 515.484375 262.96875 520.605469 262.96875 C 514.632812 260.410156 505.25 262.117188 503.542969 256.144531 C 501.839844 247.617188 514.738281 242.925781 520.707031 236.953125 C 513.03125 237.804688 507.808594 245.910156 500.132812 247.617188 C 500.132812 241.648438 500.984375 236.53125 503.542969 231.414062 C 497.578125 238.234375 500.984375 249.324219 494.167969 253.585938 C 487.34375 257.851562 488.195312 244.207031 484.785156 239.085938 C 483.929688 245.910156 488.195312 253.585938 483.929688 259.558594 C 480.519531 262.96875 474.554688 262.117188 470.289062 258.707031 C 471.140625 262.96875 478.820312 263.824219 477.960938 265.527344 C 475.402344 270.644531 466.023438 268.085938 462.613281 263.824219 C 461.757812 267.234375 466.023438 268.941406 467.730469 271.5 C 469.429688 275.761719 462.613281 278.320312 459.199219 277.46875 C 458.464844 277.101562 457.859375 276.613281 457.34375 276.042969 C 458.128906 282.253906 466.878906 281.09375 466.878906 281.09375 C 468.6875 292.707031 481.617188 299.53125 495.554688 303.410156 C 496.804688 299.695312 496.980469 295.671875 495.867188 291.96875 "/>
<path style=" stroke:none;fill-rule:nonzero;fill:rgb(43.919373%,27.059937%,11.759949%);fill-opacity:1;" d="M 488.835938 255.71875 C 489.046875 255.675781 485.976562 249.347656 485.535156 240.957031 C 484.996094 232.542969 487.773438 226.03125 487.773438 226.082031 C 487.664062 225.90625 484.105469 232.304688 484.640625 241.007812 C 485.113281 249.664062 488.933594 255.761719 488.835938 255.71875 "/>
<path style=" stroke:none;fill-rule:nonzero;fill:rgb(43.919373%,27.059937%,11.759949%);fill-opacity:1;" d="M 514.203125 219.257812 C 514.292969 219.050781 505.808594 224.058594 501.757812 234.90625 C 497.546875 245.417969 497.546875 254.710938 497.578125 254.65625 C 497.695312 254.699219 498.449219 245.546875 502.585938 235.246094 C 506.511719 224.664062 514.292969 219.234375 514.203125 219.257812 "/>
<path style=" stroke:none;fill-rule:nonzero;fill:rgb(43.919373%,27.059937%,11.759949%);fill-opacity:1;" d="M 549.378906 230.984375 C 549.527344 231.246094 535.890625 229.984375 520.78125 236.507812 C 505.378906 243.035156 498.832031 255.800781 499.285156 255.71875 C 499.011719 255.792969 506.054688 243.6875 521.144531 237.324219 C 535.964844 230.902344 549.511719 231.378906 549.378906 230.984375 "/>
<path style=" stroke:none;fill-rule:nonzero;fill:rgb(43.919373%,27.059937%,11.759949%);fill-opacity:1;" d="M 554.503906 265.953125 C 554.535156 265.742188 542.347656 267.5625 527.929688 263.734375 C 520.78125 262.03125 514.1875 259.929688 509.195312 260.460938 C 504.230469 260.695312 501.570312 262.558594 501.628906 262.539062 C 501.617188 262.613281 504.347656 260.984375 509.21875 260.960938 C 514.089844 260.640625 520.476562 262.878906 527.722656 264.609375 C 542.324219 268.46875 554.609375 265.875 554.503906 265.953125 "/>
<path style=" stroke:none;fill-rule:nonzero;fill:rgb(43.919373%,27.059937%,11.759949%);fill-opacity:1;" d="M 545.757812 283.4375 C 545.898438 283.328125 534.5625 283.269531 523.574219 275.625 C 518.121094 272.058594 513.425781 267.996094 509.035156 266.941406 C 504.691406 265.84375 501.984375 266.996094 502.050781 267.019531 C 502.023438 267.058594 504.753906 266.15625 508.894531 267.425781 C 513.066406 268.625 517.527344 272.734375 523.089844 276.382812 C 534.34375 284.167969 545.976562 283.480469 545.757812 283.4375 "/>
<path style=" stroke:none;fill-rule:nonzero;fill:rgb(43.919373%,27.059937%,11.759949%);fill-opacity:1;" d="M 518.46875 295.378906 C 518.609375 295.226562 511.492188 294.03125 505.898438 287.808594 C 500.292969 281.746094 498.292969 275.035156 498.214844 275.125 C 498.140625 275.039062 499.4375 282.101562 505.246094 288.417969 C 511.128906 294.90625 518.667969 295.378906 518.46875 295.378906 "/>
<path style=" stroke:none;fill-rule:nonzero;fill:rgb(43.919373%,27.059937%,11.759949%);fill-opacity:1;" d="M 481.164062 263.609375 C 481.410156 263.441406 474.355469 264.132812 469.835938 258.03125 C 465.289062 252.128906 466.449219 245.542969 466.449219 245.695312 C 466.332031 245.402344 464.304688 252.214844 469.128906 258.582031 C 474.121094 265.125 481.546875 263.570312 481.164062 263.609375 "/>
<path style=" stroke:none;fill-rule:nonzero;fill:rgb(43.919373%,27.059937%,11.759949%);fill-opacity:1;" d="M 477.535156 268.300781 C 477.585938 268.046875 473.019531 270.160156 467.996094 268.035156 C 462.972656 265.851562 461.351562 261.128906 461.335938 261.261719 C 461.195312 261.074219 462.125 266.378906 467.640625 268.855469 C 473.25 271.132812 477.699219 268.128906 477.535156 268.300781 "/>
<path style=" stroke:none;fill-rule:nonzero;fill:rgb(43.919373%,27.059937%,11.759949%);fill-opacity:1;" d="M 506.53125 303.484375 C 506.621094 303.4375 501.921875 300.671875 499.671875 294.707031 C 497.367188 288.890625 497.238281 283.621094 497.148438 283.65625 C 497.097656 283.59375 496.449219 288.960938 498.84375 295.046875 C 501.261719 301.347656 506.640625 303.625 506.53125 303.484375 "/>
<path style=" stroke:none;fill-rule:nonzero;fill:rgb(94.509888%,61.178589%,10.5896%);fill-opacity:1;" d="M 483.078125 264.460938 C 481.800781 260.835938 488.835938 254.226562 495.65625 258.492188 C 502.476562 262.753906 495.230469 274.910156 487.773438 271.5 C 480.304688 268.085938 483.078125 264.460938 483.078125 264.460938 "/>
<path style=" stroke:none;fill-rule:nonzero;fill:rgb(87.838745%,53.329468%,13.729858%);fill-opacity:1;" d="M 493.019531 268.632812 C 495.035156 263.648438 491.027344 260.167969 486.601562 261.011719 C 487.113281 258.632812 489.316406 257.953125 491.367188 257.117188 C 486.222656 256.902344 482.070312 261.609375 483.078125 264.460938 C 483.078125 264.460938 480.304688 268.085938 487.773438 271.5 C 491.777344 273.332031 495.722656 270.671875 497.457031 267.148438 C 496.058594 267.824219 494.492188 268.289062 493.019531 268.632812 "/>
<path style=" stroke:none;fill-rule:nonzero;fill:rgb(65.879822%,50.19989%,14.118958%);fill-opacity:1;" d="M 487.980469 262.539062 C 481.914062 260.15625 465.808594 272.566406 463.894531 281.304688 C 461.972656 290.046875 469.007812 292.398438 466.878906 296.445312 C 464.742188 300.496094 463.679688 300.710938 463.464844 304.546875 C 463.464844 304.546875 456.640625 306.46875 451.097656 311.585938 C 445.558594 316.703125 443.636719 329.710938 451.097656 331.417969 C 451.097656 331.417969 449.609375 339.09375 457.285156 341.226562 C 464.957031 343.355469 473.695312 347.199219 475.402344 349.757812 C 477.113281 352.316406 477.960938 360.628906 471.140625 359.347656 C 471.140625 359.347656 482.226562 364.464844 485.851562 353.382812 C 489.472656 342.289062 478.386719 338.03125 484.785156 328.433594 C 491.179688 318.835938 508.660156 309.449219 506.316406 301.351562 C 503.972656 293.25 488.621094 292.398438 488.621094 292.398438 C 488.621094 292.398438 480.949219 285.574219 486.066406 277.46875 C 491.179688 269.363281 495.019531 265.316406 487.980469 262.539062 "/>
<path style=" stroke:none;fill-rule:nonzero;fill:rgb(57.249451%,41.178894%,13.729858%);fill-opacity:1;" d="M 489.902344 301.351562 C 485.636719 302.203125 474.65625 301.988281 470.394531 299.429688 C 468.6875 297.722656 476.148438 296.65625 464.316406 286 C 464.027344 285.5625 463.785156 285.117188 463.570312 284.671875 C 463.796875 290.746094 468.703125 292.972656 466.878906 296.445312 C 464.742188 300.496094 463.679688 300.710938 463.464844 304.546875 C 463.464844 304.546875 462.878906 304.71875 461.9375 305.066406 C 470.890625 303.042969 481.476562 309.878906 489.902344 301.351562 "/>
<path style=" stroke:none;fill-rule:nonzero;fill:rgb(57.249451%,41.178894%,13.729858%);fill-opacity:1;" d="M 493.035156 292.984375 C 490.5 292.5 488.621094 292.398438 488.621094 292.398438 C 488.621094 292.398438 480.949219 285.574219 486.066406 277.46875 C 487.175781 275.703125 488.226562 274.136719 489.117188 272.730469 C 484.902344 273.964844 482.035156 276.996094 480.519531 280.027344 C 477.960938 284.292969 479.667969 290.261719 483.929688 291.96875 C 485.289062 292.511719 486.730469 292.792969 488.199219 292.925781 C 488.199219 292.886719 488.195312 292.859375 488.195312 292.820312 C 488.195312 292.859375 488.199219 292.886719 488.199219 292.925781 C 489.792969 293.066406 491.429688 293.046875 493.035156 292.984375 "/>
<path style=" stroke:none;fill-rule:nonzero;fill:rgb(75.289917%,58.81958%,20.779419%);fill-opacity:1;" d="M 471.398438 359.460938 C 471.703125 359.472656 472.007812 359.472656 472.3125 359.480469 C 471.949219 359.472656 471.5625 359.429688 471.140625 359.347656 C 471.140625 359.347656 471.234375 359.394531 471.398438 359.460938 "/>
<path style=" stroke:none;fill-rule:nonzero;fill:rgb(57.249451%,41.178894%,13.729858%);fill-opacity:1;" d="M 474.554688 327.789062 C 475.273438 325.621094 477.84375 324.671875 480.171875 323.394531 C 471.835938 322.949219 469.984375 334.765625 463.464844 338.03125 C 458.347656 340.589844 459.199219 329.496094 463.464844 326.085938 C 458.347656 327.789062 454.082031 331.203125 453.230469 336.320312 C 450.675781 320.96875 471.140625 320.113281 480.519531 314.996094 C 469.429688 317.554688 458.347656 320.96875 447.265625 322.671875 C 446.988281 322.671875 446.628906 322.226562 446.347656 321.546875 C 445.738281 326.125 447 330.476562 451.097656 331.417969 C 451.097656 331.417969 449.609375 339.09375 457.285156 341.226562 C 464.957031 343.355469 473.695312 347.199219 475.402344 349.757812 C 477 352.152344 477.847656 359.589844 472.351562 359.480469 C 474.988281 359.519531 477.5 359.269531 479.667969 357.648438 C 483.078125 355.082031 483.078125 350.824219 481.371094 348.265625 C 476.253906 342.289062 471.140625 335.472656 474.554688 327.789062 "/>
<path style=" stroke:none;fill-rule:nonzero;fill:rgb(75.289917%,58.81958%,20.779419%);fill-opacity:1;" d="M 471.140625 277.46875 C 469.429688 284.292969 472.136719 288.773438 477.21875 292.148438 C 470.644531 282.945312 475.644531 270.03125 484.578125 265.835938 C 477.691406 265.207031 473.410156 270.660156 471.140625 277.46875 "/>
<path style=" stroke:none;fill-rule:nonzero;fill:rgb(75.289917%,58.81958%,20.779419%);fill-opacity:1;" d="M 478.820312 336.320312 C 480.304688 338.8125 483.550781 341.015625 485.648438 343.777344 C 483.878906 338.683594 480.609375 334.6875 484.785156 328.433594 C 485.980469 326.632812 487.5625 324.847656 489.339844 323.074219 C 482.785156 324.628906 475.160156 330.472656 478.820312 336.320312 "/>
<path style=" stroke:none;fill-rule:nonzero;fill:rgb(75.289917%,58.81958%,20.779419%);fill-opacity:1;" d="M 488.472656 294.382812 C 489.828125 297.972656 495.675781 298.230469 494.167969 300.496094 C 484.785156 312.4375 466.023438 304.761719 455.789062 316.703125 C 465.171875 314.144531 476.253906 309.027344 483.929688 312.4375 C 487.34375 314.144531 475.402344 316.703125 473.695312 323.527344 C 481.371094 315.851562 493.3125 315.851562 499.285156 308.171875 C 507.804688 298.945312 496.820312 296.804688 488.472656 294.382812 "/>
<path style=" stroke:none;fill-rule:nonzero;fill:rgb(43.919373%,27.059937%,11.759949%);fill-opacity:1;" d="M 488.621094 292.398438 C 488.78125 292.144531 484.410156 292.019531 481.050781 288.9375 C 477.984375 285.300781 480.847656 280.957031 480.519531 281.164062 C 480.851562 280.816406 476.851562 284.9375 480.390625 289.546875 C 484.339844 293.050781 488.765625 292.226562 488.621094 292.398438 "/>
<path style=" stroke:none;fill-rule:nonzero;fill:rgb(43.919373%,27.059937%,11.759949%);fill-opacity:1;" d="M 463.464844 304.191406 C 463.464844 304.242188 469.167969 303.441406 476.101562 304.164062 C 483.316406 305.90625 488.847656 302.113281 488.195312 301.632812 C 488.5 302.085938 483.292969 304.960938 476.191406 303.269531 C 469.078125 302.542969 463.40625 304.109375 463.464844 304.191406 "/>
<path style=" stroke:none;fill-rule:nonzero;fill:rgb(43.919373%,27.059937%,11.759949%);fill-opacity:1;" d="M 451.097656 331.417969 C 451.292969 331.496094 451.429688 329.339844 453.332031 326.753906 C 455.183594 324.074219 459.339844 322.164062 464.042969 320.839844 C 473.714844 318.671875 481.074219 314.960938 480.800781 314.574219 C 480.902344 314.867188 473.511719 317.792969 463.792969 319.984375 C 459.035156 321.308594 454.695312 323.515625 452.921875 326.460938 C 451.113281 329.292969 451.230469 331.480469 451.097656 331.417969 "/>
<path style=" stroke:none;fill-rule:nonzero;fill:rgb(43.919373%,27.059937%,11.759949%);fill-opacity:1;" d="M 458.488281 341.4375 C 458.308594 341.675781 455.441406 338.242188 457.34375 333.476562 C 458.636719 328.652344 462.578125 326.882812 462.613281 327.078125 C 462.722656 326.640625 457.925781 327.964844 456.488281 333.207031 C 454.4375 338.441406 458.367188 342.03125 458.488281 341.4375 "/>
<path style=" stroke:none;fill-rule:nonzero;fill:rgb(43.919373%,27.059937%,11.759949%);fill-opacity:1;" d="M 474.839844 348.90625 C 475.273438 349.113281 468.40625 343.0625 471.03125 334.050781 C 472.191406 329.757812 474.441406 326.226562 476.859375 324.589844 C 479.308594 323 481.265625 322.9375 481.214844 322.773438 C 481.257812 322.871094 479.28125 322.671875 476.582031 324.164062 C 473.921875 325.703125 471.359375 329.371094 470.167969 333.808594 C 467.488281 343.589844 475.285156 349.289062 474.839844 348.90625 "/>
<path style=" stroke:none;fill-rule:nonzero;fill:rgb(19.219971%,37.249756%,37.249756%);fill-opacity:1;" d="M 704 349.839844 C 689.472656 344.601562 550 344.222656 532.566406 350.589844 C 526.804688 352.6875 523.269531 362.386719 521.113281 374.429688 C 525.792969 369.804688 531.355469 366.128906 538.101562 364.4375 C 588.742188 350.964844 640.214844 361.445312 690.851562 359.945312 C 699.597656 359.484375 706.75 361.894531 713.097656 365.929688 C 710.96875 357.5 708.027344 351.296875 704 349.839844 "/>
<path style=" stroke:none;fill-rule:nonzero;fill:rgb(19.219971%,37.249756%,37.249756%);fill-opacity:1;" d="M 943.625 349.554688 C 929.101562 344.3125 789.628906 343.941406 772.195312 350.304688 C 766.433594 352.40625 762.898438 362.105469 760.738281 374.144531 C 765.421875 369.519531 770.984375 365.839844 777.726562 364.15625 C 828.371094 350.679688 879.84375 361.15625 930.484375 359.664062 C 939.226562 359.195312 946.375 361.609375 952.726562 365.648438 C 950.597656 357.21875 947.65625 351.007812 943.625 349.554688 "/>
</g>
</svg>
