<?xml version="1.0" encoding="UTF-8"?>
<svg xmlns="http://www.w3.org/2000/svg" xmlns:xlink="http://www.w3.org/1999/xlink" width="810pt" height="1439.999935pt" viewBox="0 0 810 1439.999935" version="1.2">
<defs>
<clipPath id="clip1">
  <path d="M 378.5625 985.613281 L 413.980469 985.613281 L 413.980469 1081.476562 L 378.5625 1081.476562 Z M 378.5625 985.613281 "/>
</clipPath>
<clipPath id="clip2">
  <path d="M 206 996 L 387 996 L 387 1081.476562 L 206 1081.476562 Z M 206 996 "/>
</clipPath>
<clipPath id="clip3">
  <path d="M 1.585938 996 L 182.484375 996 L 182.484375 1081.476562 L 1.585938 1081.476562 Z M 1.585938 996 "/>
</clipPath>
<clipPath id="clip4">
  <path d="M 400.066406 962 L 610 962 L 610 1081.476562 L 400.066406 1081.476562 Z M 400.066406 962 "/>
</clipPath>
<clipPath id="clip5">
  <path d="M 408 962 L 594.878906 962 L 594.878906 1081.476562 L 408 1081.476562 Z M 408 962 "/>
</clipPath>
<clipPath id="clip6">
  <path d="M 582.230469 981 L 618.914062 981 L 618.914062 1081.476562 L 582.230469 1081.476562 Z M 582.230469 981 "/>
</clipPath>
<clipPath id="clip7">
  <path d="M 582.230469 1002.070312 L 603 1002.070312 L 603 1081.476562 L 582.230469 1081.476562 Z M 582.230469 1002.070312 "/>
</clipPath>
<clipPath id="clip8">
  <path d="M 417 996 L 598.675781 996 L 598.675781 1081.476562 L 417 1081.476562 Z M 417 996 "/>
</clipPath>
<clipPath id="clip9">
  <path d="M 627 996 L 808.351562 996 L 808.351562 1081.476562 L 627 1081.476562 Z M 627 996 "/>
</clipPath>
</defs>
<g id="surface1">
<rect x="0" y="0" width="810" height="1439.999935" style="fill:rgb(100%,100%,100%);fill-opacity:1;stroke:none;"/>
<rect x="0" y="0" width="810" height="1439.999935" style="fill:rgb(100%,100%,100%);fill-opacity:1;stroke:none;"/>
<rect x="0" y="0" width="810" height="1439.999935" style="fill:rgb(50.19989%,0%,0%);fill-opacity:1;stroke:none;"/>
<path style=" stroke:none;fill-rule:nonzero;fill:rgb(92.549133%,79.219055%,62.348938%);fill-opacity:1;" d="M 242.316406 1003.769531 C 242.316406 1003.769531 249.421875 973.089844 267.742188 963.363281 C 286.066406 953.632812 261.757812 1007.886719 260.636719 1007.886719 C 259.515625 1007.886719 249.796875 1013.5 242.316406 1003.769531 "/>
<path style=" stroke:none;fill-rule:nonzero;fill:rgb(83.529663%,70.588684%,53.729248%);fill-opacity:1;" d="M 267.742188 963.363281 C 258.816406 968.101562 252.554688 977.816406 248.472656 986.535156 C 248.300781 987.539062 248.304688 988.4375 248.667969 988.808594 C 256.078125 994.628906 255.246094 1003.066406 251.21875 1009.363281 C 255.9375 1010.039062 259.941406 1007.886719 260.636719 1007.886719 C 261.757812 1007.886719 286.066406 953.632812 267.742188 963.363281 "/>
<path style=" stroke:none;fill-rule:nonzero;fill:rgb(92.549133%,79.219055%,62.348938%);fill-opacity:1;" d="M 394.132812 893.222656 C 396.375 889.667969 395.628906 884.992188 389.832031 887.234375 C 384.035156 889.480469 370.945312 905.003906 379.175781 908.75 C 387.402344 912.492188 394.132812 893.222656 394.132812 893.222656 "/>
<path style=" stroke:none;fill-rule:nonzero;fill:rgb(92.549133%,79.219055%,62.348938%);fill-opacity:1;" d="M 307.378906 954.757812 C 307.378906 954.757812 322.710938 957 338.792969 952.140625 C 354.867188 947.273438 371.320312 934.367188 371.320312 934.367188 C 371.320312 934.367188 383.660156 940.164062 388.335938 948.210938 C 393.011719 956.253906 390.578125 977.578125 383.660156 982.632812 C 376.742188 987.679688 360.667969 988.433594 358.238281 987.679688 C 355.804688 986.933594 310.375 965.421875 307.378906 954.757812 "/>
<path style=" stroke:none;fill-rule:nonzero;fill:rgb(92.939758%,81.17981%,66.268921%);fill-opacity:1;" d="M 333.414062 966.820312 C 336.851562 960.230469 345.785156 959.128906 351.132812 954.449219 C 354.425781 951.558594 357.042969 947.980469 358.726562 943.980469 C 352.824219 947.566406 345.398438 951.472656 338.042969 953.699219 C 330.15625 956.085938 322.445312 956.757812 316.640625 956.828125 C 320.539062 962.113281 327.011719 964.566406 333.414062 966.820312 "/>
<path style=" stroke:none;fill-rule:nonzero;fill:rgb(88.238525%,75.289917%,58.039856%);fill-opacity:1;" d="M 388.335938 948.210938 C 384.160156 941.015625 373.855469 935.625 371.722656 934.558594 C 367.117188 936.867188 364.074219 940.324219 365.335938 945.402344 C 365.335938 947.113281 367.503906 947.953125 369.855469 948.585938 C 370.472656 951.046875 373.125 953.464844 372.066406 956.628906 C 371.320312 958.125 369.824219 959.621094 369.078125 959.621094 C 357.125 963.039062 350.375 972.527344 348.492188 983.132812 C 353.761719 985.753906 357.574219 987.476562 358.238281 987.679688 C 360.667969 988.433594 376.742188 987.679688 383.660156 982.632812 C 390.578125 977.578125 393.011719 956.253906 388.335938 948.210938 "/>
<g clip-path="url(#clip1)" clip-rule="nonzero">
<path style=" stroke:none;fill-rule:nonzero;fill:rgb(92.549133%,79.219055%,62.348938%);fill-opacity:1;" d="M 411.957031 989.054688 C 411.117188 987.78125 409.84375 986.730469 408.304688 985.867188 C 403.667969 990.339844 390.691406 1003.957031 387.027344 1019.234375 C 384.78125 1028.605469 381.535156 1043.355469 378.851562 1055.746094 C 383.449219 1067.453125 385.59375 1077.839844 386.273438 1081.59375 L 392.453125 1081.59375 C 401.070312 1061.652344 417.59375 997.640625 411.957031 989.054688 "/>
</g>
<path style=" stroke:none;fill-rule:nonzero;fill:rgb(13.328552%,56.079102%,80.778503%);fill-opacity:1;" d="M 408.304688 985.867188 C 399.261719 980.804688 380.546875 982.070312 380.546875 982.070312 C 332.433594 983.320312 311.214844 955.320312 309.621094 953.539062 C 308.03125 951.765625 304.761719 952.046875 298.964844 950.832031 C 293.167969 949.613281 287.464844 947.832031 283.167969 946.804688 C 278.867188 945.777344 274.03125 951.875 270.855469 956.628906 C 259.394531 973.839844 255.152344 1007.265625 255.152344 1007.265625 C 255.152344 1007.265625 298.03125 1002.277344 337.671875 1012.003906 C 359.320312 1017.316406 371.894531 1038.035156 378.851562 1055.746094 C 381.535156 1043.355469 384.78125 1028.605469 387.027344 1019.234375 C 390.691406 1003.957031 403.667969 990.339844 408.304688 985.867188 "/>
<path style=" stroke:none;fill-rule:nonzero;fill:rgb(22.349548%,60.389709%,83.529663%);fill-opacity:1;" d="M 296.285156 955.632812 C 309.878906 962.429688 323.472656 974.351562 338.347656 977.328125 C 319.417969 969.253906 310.390625 957.421875 309.375 956.285156 C 307.785156 954.507812 304.511719 954.785156 298.71875 953.574219 C 292.921875 952.359375 287.21875 950.578125 282.917969 949.550781 C 280.128906 948.882812 277.109375 951.222656 274.464844 954.242188 C 281.980469 954.414062 289.445312 952.210938 296.285156 955.632812 "/>
<path style=" stroke:none;fill-rule:nonzero;fill:rgb(10.5896%,52.159119%,76.078796%);fill-opacity:1;" d="M 380.546875 982.070312 C 370.300781 982.335938 361.277344 981.273438 353.398438 979.417969 C 347.65625 983.917969 339.277344 984.3125 331.6875 984.3125 C 330.1875 984.3125 327.945312 988.054688 324.953125 987.308594 C 308.5 980.574219 290.554688 978.332031 278.585938 964.109375 C 277.089844 963.363281 274.851562 964.109375 273.351562 964.859375 C 273.351562 961.261719 273.828125 957.667969 272.09375 954.839844 C 271.65625 955.445312 271.246094 956.046875 270.855469 956.628906 C 259.394531 973.839844 255.152344 1007.265625 255.152344 1007.265625 C 255.152344 1007.265625 298.03125 1002.277344 337.671875 1012.003906 C 359.320312 1017.316406 371.894531 1038.035156 378.851562 1055.746094 C 381.535156 1043.355469 384.78125 1028.605469 387.027344 1019.234375 C 390.691406 1003.957031 403.667969 990.339844 408.304688 985.867188 C 399.261719 980.804688 380.546875 982.070312 380.546875 982.070312 "/>
<path style=" stroke:none;fill-rule:nonzero;fill:rgb(92.549133%,79.219055%,62.348938%);fill-opacity:1;" d="M 269.613281 969.597656 C 269.613281 969.597656 269.613281 962.367188 270.855469 956.628906 C 270.855469 956.628906 265.875 959.375 265.625 961.367188 C 265.625 961.367188 263.628906 959.621094 260.140625 960.621094 C 256.648438 961.617188 257.394531 966.109375 255.40625 967.355469 C 253.410156 968.601562 251.164062 971.097656 251.664062 973.589844 C 252.164062 976.085938 248.421875 979.328125 249.921875 982.820312 C 251.414062 986.3125 261.636719 998.035156 264.625 998.535156 C 267.621094 999.03125 270.855469 975.585938 269.613281 969.597656 "/>
<path style=" stroke:none;fill-rule:nonzero;fill:rgb(88.238525%,75.289917%,58.039856%);fill-opacity:1;" d="M 251.898438 971.324219 C 251.613281 972.054688 251.511719 972.824219 251.664062 973.589844 C 251.910156 974.832031 251.117188 976.253906 250.433594 977.800781 C 252.515625 976.683594 252.691406 976.085938 251.898438 971.324219 "/>
<path style=" stroke:none;fill-rule:nonzero;fill:rgb(88.238525%,75.289917%,58.039856%);fill-opacity:1;" d="M 265.472656 965.3125 C 264.925781 963.476562 265.449219 961.914062 266.035156 960.425781 C 265.8125 960.753906 265.664062 961.070312 265.625 961.367188 C 265.625 961.367188 264.585938 960.46875 262.707031 960.332031 C 262.679688 962.15625 264.011719 964.171875 265.472656 965.3125 "/>
<path style=" stroke:none;fill-rule:nonzero;fill:rgb(88.238525%,75.289917%,58.039856%);fill-opacity:1;" d="M 269.660156 967.46875 C 262.78125 969.707031 261.992188 978 259.890625 984.3125 C 258.457031 988.617188 254.589844 987.121094 251.007812 984.699219 C 254.117188 989.351562 262.050781 998.105469 264.625 998.535156 C 267.621094 999.03125 270.855469 975.585938 269.613281 969.597656 C 269.613281 969.597656 269.613281 968.769531 269.660156 967.46875 "/>
<path style=" stroke:none;fill-rule:nonzero;fill:rgb(88.238525%,75.289917%,58.039856%);fill-opacity:1;" d="M 258.058594 962.132812 C 256.882812 963.84375 256.832031 966.339844 255.488281 967.289062 C 256.019531 967.269531 256.542969 967.101562 256.898438 967.101562 C 258.023438 965.980469 257.878906 964.003906 258.058594 962.132812 "/>
<g clip-path="url(#clip2)" clip-rule="nonzero">
<path style=" stroke:none;fill-rule:nonzero;fill:rgb(10.5896%,28.62854%,27.449036%);fill-opacity:1;" d="M 372.695312 1000.402344 C 359.605469 995.167969 233.964844 994.789062 218.261719 1001.152344 C 204.019531 1006.917969 206.070312 1069.882812 206.578125 1081.59375 L 386.644531 1081.59375 C 387.484375 1067.445312 385.265625 1005.4375 372.695312 1000.402344 "/>
</g>
<path style=" stroke:none;fill-rule:nonzero;fill:rgb(19.219971%,37.249756%,37.249756%);fill-opacity:1;" d="M 372.117188 1002.910156 C 359.378906 998.316406 237.0625 997.984375 221.769531 1003.566406 C 216.71875 1005.410156 213.621094 1013.914062 211.726562 1024.480469 C 215.832031 1020.425781 220.707031 1017.203125 226.625 1015.71875 C 271.035156 1003.898438 316.175781 1013.089844 360.589844 1011.78125 C 368.257812 1011.371094 374.527344 1013.484375 380.09375 1017.027344 C 378.230469 1009.632812 375.652344 1004.183594 372.117188 1002.910156 "/>
<path style=" stroke:none;fill-rule:nonzero;fill:rgb(5.099487%,16.468811%,14.118958%);fill-opacity:1;" d="M 372.695312 1000.402344 C 363.578125 996.757812 299.894531 995.46875 256.75 997.167969 C 277.585938 1036.183594 323.484375 1056.757812 369.394531 1049.308594 C 375.304688 1047.996094 380.875 1050.097656 386.105469 1053.835938 C 384.6875 1031.171875 380.886719 1003.6875 372.695312 1000.402344 "/>
<g clip-path="url(#clip3)" clip-rule="nonzero">
<path style=" stroke:none;fill-rule:nonzero;fill:rgb(10.5896%,28.62854%,27.449036%);fill-opacity:1;" d="M 169.273438 1000.402344 C 156.183594 995.167969 30.542969 994.789062 14.839844 1001.152344 C 0.597656 1006.917969 1.421875 1069.882812 1.699219 1081.59375 L 181.738281 1081.59375 C 182.6875 1067.445312 181.847656 1005.4375 169.273438 1000.402344 "/>
</g>
<path style=" stroke:none;fill-rule:nonzero;fill:rgb(19.219971%,37.249756%,37.249756%);fill-opacity:1;" d="M 167.203125 1003.410156 C 154.460938 998.8125 32.144531 998.484375 16.855469 1004.066406 C 11.804688 1005.910156 8.703125 1014.414062 6.808594 1024.980469 C 10.914062 1020.925781 15.792969 1017.699219 21.707031 1016.21875 C 66.121094 1004.398438 111.261719 1013.589844 155.671875 1012.277344 C 163.339844 1011.867188 169.609375 1013.984375 175.179688 1017.523438 C 173.316406 1010.132812 170.738281 1004.683594 167.203125 1003.410156 "/>
<path style=" stroke:none;fill-rule:nonzero;fill:rgb(70.199585%,25.489807%,16.468811%);fill-opacity:1;" d="M 408.351562 964.695312 C 403.257812 965.726562 397.660156 967.167969 392.074219 969.164062 C 373.753906 975.710938 355.242188 984.3125 349.632812 986.933594 C 344.023438 989.554688 339.726562 988.808594 336.917969 988.992188 C 334.117188 989.179688 333.367188 992.359375 333.367188 992.359375 C 333.367188 992.359375 328.320312 989.179688 324.582031 988.992188 C 320.839844 988.808594 298.21875 983.941406 290.742188 980.574219 C 283.261719 977.207031 282.136719 972.902344 279.894531 973.277344 C 279.894531 973.277344 276.628906 967.152344 271.386719 967.855469 C 263.722656 968.882812 260.636719 990.554688 262.382812 997.035156 C 264.125 1003.523438 277.339844 1011.253906 287.8125 1018.242188 C 298.28125 1025.222656 315.730469 1034.203125 332.933594 1037.445312 C 350.132812 1040.691406 403.105469 1024.722656 413.953125 1023.601562 C 414.683594 1023.527344 415.371094 1023.730469 416.011719 1024.164062 C 411.347656 1012.796875 404.839844 1004.21875 402.359375 991.800781 C 400.386719 981.933594 402.496094 971.972656 408.351562 964.695312 "/>
<path style=" stroke:none;fill-rule:nonzero;fill:rgb(79.998779%,34.118652%,23.529053%);fill-opacity:1;" d="M 274.878906 982.84375 C 276.710938 982.28125 278.554688 982.9375 279.054688 983.941406 C 292.515625 994.421875 308.21875 992.921875 323.929688 996.664062 C 327.632812 997.40625 329.136719 1000.359375 329.15625 1004.789062 C 331.558594 1001.726562 332.488281 997.144531 335.890625 994.421875 C 339.222656 992.511719 343.15625 991.511719 345.960938 989.300781 C 341.988281 990.394531 338.847656 989.96875 336.636719 990.113281 C 333.835938 990.300781 333.089844 993.480469 333.089844 993.480469 C 333.089844 993.480469 328.039062 990.300781 324.300781 990.113281 C 320.558594 989.929688 297.9375 985.066406 290.460938 981.699219 C 282.976562 978.332031 281.855469 974.023438 279.613281 974.398438 C 279.613281 974.398438 276.347656 968.273438 271.109375 968.976562 C 268.441406 969.332031 267.234375 972.234375 265.683594 976.085938 C 270.695312 974.109375 272.875 978.015625 274.878906 982.84375 "/>
<path style=" stroke:none;fill-rule:nonzero;fill:rgb(65.489197%,20.779419%,15.689087%);fill-opacity:1;" d="M 407.96875 1009.011719 C 375.808594 1036.699219 325.703125 1036.699219 291.300781 1009.757812 C 289.054688 1007.511719 284.570312 1006.765625 280.828125 1004.519531 C 272.601562 1000.777344 274.722656 991.113281 274.722656 982.878906 C 271.730469 988.121094 273.351562 997.035156 269.613281 997.789062 C 263.6875 998.96875 262.925781 988.890625 263.238281 980.925781 C 261.832031 987.140625 261.53125 993.886719 262.382812 997.035156 C 264.125 1003.523438 277.339844 1011.253906 287.8125 1018.242188 C 298.28125 1025.222656 315.605469 1034.765625 332.808594 1038.003906 C 350.007812 1041.25 403.105469 1024.722656 413.953125 1023.601562 C 414.683594 1023.527344 415.371094 1023.730469 416.011719 1024.164062 C 413.765625 1018.109375 411 1013.703125 408.527344 1008.695312 C 408.347656 1008.785156 408.160156 1008.882812 407.96875 1009.011719 "/>
<path style=" stroke:none;fill-rule:nonzero;fill:rgb(65.489197%,20.779419%,15.689087%);fill-opacity:1;" d="M 392.074219 969.164062 C 377.601562 974.335938 363.019531 980.789062 354.761719 984.5625 C 354.867188 987.066406 355.351562 989.519531 356.363281 991.800781 C 360.105469 1000.03125 390.019531 999.28125 377.304688 1012.003906 C 382.539062 1015 390.765625 1013.5 391.511719 1009.011719 C 391.980469 996.398438 395.070312 984.660156 402.601562 976.527344 C 403.660156 972.179688 405.582031 968.136719 408.351562 964.695312 C 403.257812 965.726562 397.660156 967.167969 392.074219 969.164062 "/>
<g clip-path="url(#clip4)" clip-rule="nonzero">
<path style=" stroke:none;fill-rule:nonzero;fill:rgb(86.669922%,39.99939%,30.589294%);fill-opacity:1;" d="M 608.398438 979.078125 C 606.148438 976.832031 573.996094 964.859375 573.996094 964.859375 C 573.996094 964.859375 571.007812 961.121094 557.917969 963.734375 C 544.832031 966.355469 510.425781 979.453125 488.367188 978.332031 C 466.300781 977.207031 440.878906 961.867188 428.910156 962.054688 C 428.910156 962.054688 419.960938 962.324219 408.351562 964.695312 C 402.496094 971.972656 399.265625 981.183594 401.238281 991.054688 C 402.878906 999.253906 407.027344 1005.90625 410.820312 1012.890625 C 412.765625 1016.480469 414.429688 1020.308594 416.011719 1024.164062 C 424.890625 1030.152344 425.542969 1081.222656 425.542969 1081.222656 C 425.542969 1081.222656 436.363281 1081.382812 452.859375 1081.59375 L 582.566406 1081.59375 C 582.613281 1045.421875 586.089844 1007.054688 609.5 981.113281 C 609.140625 980.128906 608.773438 979.453125 608.398438 979.078125 "/>
</g>
<path style=" stroke:none;fill-rule:nonzero;fill:rgb(77.648926%,32.159424%,22.349548%);fill-opacity:1;" d="M 421.433594 966.355469 C 422.667969 966.355469 423.902344 964.304688 424.71875 962.324219 C 421.007812 962.640625 415.136719 963.308594 408.351562 964.695312 C 405.273438 968.511719 402.9375 972.871094 401.683594 977.574219 C 406.296875 972.144531 412.710938 968.160156 421.433594 966.355469 "/>
<g clip-path="url(#clip5)" clip-rule="nonzero">
<path style=" stroke:none;fill-rule:nonzero;fill:rgb(77.648926%,32.159424%,22.349548%);fill-opacity:1;" d="M 562.027344 992.546875 C 556.046875 989.554688 556.796875 981.324219 559.789062 975.335938 C 563.09375 970.035156 568.171875 965.914062 574.476562 965.039062 C 574.167969 964.921875 573.996094 964.859375 573.996094 964.859375 C 573.996094 964.859375 571.007812 961.121094 557.917969 963.734375 C 544.832031 966.355469 510.425781 979.453125 488.367188 978.332031 C 466.300781 977.207031 440.878906 961.867188 428.910156 962.054688 C 428.910156 962.054688 428.503906 962.0625 427.761719 962.109375 C 425.804688 969.996094 432.25 980.046875 437.136719 986.558594 C 438.628906 989.554688 440.125 994.789062 438.628906 994.042969 C 427.414062 994.042969 423.671875 1003.023438 418.4375 1010.507812 C 416.941406 1011.253906 410.410156 1007.597656 408.320312 1008.789062 C 411.679688 1013.777344 413.796875 1018.78125 416.011719 1024.164062 C 424.890625 1030.152344 425.542969 1081.222656 425.542969 1081.222656 C 425.542969 1081.222656 436.363281 1081.382812 452.859375 1081.59375 L 582.566406 1081.59375 C 582.597656 1055.5625 584.40625 1028.394531 594.148438 1005.539062 C 593.683594 1004.691406 593.203125 1003.847656 592.691406 1003.023438 C 586.707031 993.296875 572.5 997.789062 562.027344 992.546875 "/>
</g>
<g clip-path="url(#clip6)" clip-rule="nonzero">
<path style=" stroke:none;fill-rule:nonzero;fill:rgb(70.199585%,25.489807%,16.468811%);fill-opacity:1;" d="M 614.753906 1021.355469 C 612.886719 998.617188 611.28125 986.003906 609.5 981.113281 C 579.980469 1003.023438 582.613281 1045.421875 582.566406 1081.59375 L 618.105469 1081.59375 C 617.980469 1077.871094 616.859375 1046.980469 614.753906 1021.355469 "/>
</g>
<g clip-path="url(#clip7)" clip-rule="nonzero">
<path style=" stroke:none;fill-rule:nonzero;fill:rgb(65.489197%,20.779419%,15.689087%);fill-opacity:1;" d="M 592.691406 1003.023438 C 592.53125 1002.761719 592.363281 1002.519531 592.195312 1002.277344 C 581.1875 1024.992188 582.597656 1054.980469 582.566406 1081.59375 L 601.269531 1081.59375 C 601.550781 1073.367188 601.980469 1065.132812 602.414062 1056.902344 C 603.164062 1038.945312 602.414062 1018.738281 592.691406 1003.023438 "/>
</g>
<path style=" stroke:none;fill-rule:nonzero;fill:rgb(92.549133%,79.219055%,62.348938%);fill-opacity:1;" d="M 515.164062 909.738281 C 515.164062 909.738281 511.675781 917.964844 511.675781 926.945312 C 511.675781 935.929688 522.144531 942.410156 522.144531 942.410156 C 522.144531 942.410156 461.316406 947.652344 461.070312 946.652344 C 460.816406 945.652344 465.304688 926.449219 462.066406 905.246094 C 458.820312 884.042969 515.164062 907.738281 515.164062 909.738281 "/>
<path style=" stroke:none;fill-rule:nonzero;fill:rgb(88.238525%,75.289917%,58.039856%);fill-opacity:1;" d="M 511.675781 926.945312 C 511.675781 917.964844 515.164062 909.738281 515.164062 909.738281 C 515.164062 907.738281 458.820312 884.042969 462.066406 905.246094 C 465.304688 926.449219 460.816406 945.652344 461.070312 946.652344 C 461.113281 946.824219 463 946.808594 466.085938 946.664062 C 468.828125 938.878906 469.089844 930.34375 468.546875 922.207031 C 473.03125 923.707031 473.777344 928.941406 476.773438 931.933594 C 477.519531 928.941406 478.265625 925.945312 479.765625 922.953125 C 482.007812 926.695312 483.503906 930.441406 487.238281 932.683594 C 487.238281 928.941406 491.730469 928.195312 492.476562 924.453125 C 494.71875 927.441406 492.476562 931.933594 493.226562 932.683594 C 499.207031 934.175781 502.949219 926.695312 507.433594 922.953125 C 505.863281 930.304688 508.339844 936.917969 511.5 943.308594 C 517.835938 942.78125 522.144531 942.410156 522.144531 942.410156 C 522.144531 942.410156 511.675781 935.929688 511.675781 926.945312 "/>
<path style=" stroke:none;fill-rule:nonzero;fill:rgb(92.549133%,79.219055%,62.348938%);fill-opacity:1;" d="M 456.765625 866.144531 C 456.765625 866.144531 448.738281 861.988281 447.105469 869.652344 C 445.472656 877.3125 451.214844 892.085938 456.695312 887.367188 C 462.175781 882.648438 456.765625 866.144531 456.765625 866.144531 "/>
<path style=" stroke:none;fill-rule:nonzero;fill:rgb(92.549133%,79.219055%,62.348938%);fill-opacity:1;" d="M 528.558594 882.226562 C 528.558594 882.226562 537.558594 881.371094 536.214844 889.089844 C 534.875 896.808594 524.03125 908.371094 520.707031 901.949219 C 517.382812 895.523438 528.558594 882.226562 528.558594 882.226562 "/>
<path style=" stroke:none;fill-rule:nonzero;fill:rgb(30.979919%,23.139954%,23.919678%);fill-opacity:1;" d="M 520.148438 819.683594 C 520.148438 819.683594 509.308594 803.972656 490.234375 807.714844 C 476.257812 810.453125 472.285156 819.316406 472.285156 819.316406 C 472.285156 819.316406 453.964844 820.8125 450.96875 846.628906 C 447.980469 872.445312 458.074219 903.496094 462.5625 910.609375 C 467.046875 917.71875 477.894531 925.199219 477.894531 925.199219 C 477.894531 925.199219 478.640625 921.085938 480.136719 917.71875 C 480.136719 917.71875 482.382812 926.320312 484.625 926.320312 C 486.867188 926.320312 496.21875 919.960938 496.21875 919.960938 L 497.710938 926.320312 C 497.710938 926.320312 510.800781 920.339844 522.390625 904.621094 C 533.984375 888.90625 542.582031 865.335938 542.207031 854.484375 C 541.835938 843.632812 537.351562 827.171875 533.234375 824.179688 C 529.121094 821.183594 520.148438 819.683594 520.148438 819.683594 "/>
<path style=" stroke:none;fill-rule:nonzero;fill:rgb(35.289001%,29.40979%,30.198669%);fill-opacity:1;" d="M 500.136719 815.84375 C 494.855469 815.84375 489.566406 817.167969 486.261719 821.132812 C 493.535156 817.167969 505.421875 818.488281 508.066406 826.417969 C 508.789062 821.738281 512.460938 820.195312 516.605469 819.550781 C 514.101562 816.5 505.074219 807.113281 490.890625 809.894531 C 479.445312 812.136719 475.59375 819.019531 475.09375 820.015625 C 482.636719 816.09375 491.660156 814.023438 500.136719 815.84375 "/>
<path style=" stroke:none;fill-rule:nonzero;fill:rgb(35.289001%,29.40979%,30.198669%);fill-opacity:1;" d="M 477.277344 873.757812 C 477.488281 875.457031 477.816406 877.148438 478.265625 878.804688 C 477.84375 877.113281 477.542969 875.429688 477.277344 873.757812 "/>
<path style=" stroke:none;fill-rule:nonzero;fill:rgb(35.289001%,29.40979%,30.198669%);fill-opacity:1;" d="M 518.652344 828.667969 C 524.347656 828.667969 529.507812 831.867188 535.496094 832.40625 C 533.519531 825.5625 524.433594 823.523438 518.652344 828.667969 "/>
<path style=" stroke:none;fill-rule:nonzero;fill:rgb(35.289001%,29.40979%,30.198669%);fill-opacity:1;" d="M 487.988281 864.585938 C 485.667969 867.378906 485.074219 870.746094 484.960938 874.152344 C 489.621094 882.484375 497.710938 889.09375 497.710938 899.757812 C 498.460938 896.761719 499.207031 893.027344 498.460938 890.027344 C 494.71875 881.796875 485.746094 875.0625 487.988281 864.585938 "/>
<path style=" stroke:none;fill-rule:nonzero;fill:rgb(35.289001%,29.40979%,30.198669%);fill-opacity:1;" d="M 502.949219 863.085938 C 499.957031 863.839844 502.949219 870.574219 502.949219 875.0625 C 508.933594 870.574219 511.921875 880.304688 513.417969 884.042969 C 518.875 877.902344 517.484375 871.136719 516.636719 864.316406 C 515.292969 868.519531 515.710938 873.660156 512.671875 877.308594 C 508.933594 872.816406 507.433594 861.59375 502.949219 863.085938 "/>
<path style=" stroke:none;fill-rule:nonzero;fill:rgb(35.289001%,29.40979%,30.198669%);fill-opacity:1;" d="M 506.683594 842.136719 C 512.671875 842.882812 517.160156 846.628906 522.390625 848.871094 C 522.78125 847.304688 522.753906 845.945312 522.328125 844.683594 C 518.117188 840.992188 511.636719 840.277344 506.683594 842.136719 "/>
<path style=" stroke:none;fill-rule:nonzero;fill:rgb(35.289001%,29.40979%,30.198669%);fill-opacity:1;" d="M 473.03125 857.105469 C 473.03125 848.125 476.773438 836.902344 486.492188 835.402344 C 482.753906 829.414062 475.277344 824.925781 468.546875 825.671875 C 465.203125 826.628906 462.476562 828.808594 460.550781 831.621094 C 466.832031 828.960938 478.671875 827.675781 477.988281 833.8125 C 476.492188 845.035156 464.058594 853.363281 464.058594 866.082031 C 465.554688 861.59375 471.535156 856.359375 474.53125 861.59375 C 476.140625 865.351562 476.59375 869.5 477.277344 873.757812 C 476.421875 866.988281 477.371094 859.9375 479.765625 853.363281 C 477.519531 854.109375 475.277344 855.605469 473.03125 857.105469 "/>
<path style=" stroke:none;fill-rule:nonzero;fill:rgb(26.669312%,17.649841%,17.649841%);fill-opacity:1;" d="M 542.207031 854.484375 C 542 848.425781 540.511719 840.628906 538.519531 834.394531 C 537.882812 836.867188 536.652344 839.03125 534.355469 840.640625 C 531.367188 842.882812 527.628906 837.648438 523.136719 837.648438 C 525.382812 842.136719 529.121094 847.375 526.128906 852.613281 C 523.136719 857.851562 520.148438 848.125 514.910156 848.871094 C 519.402344 861.59375 524.636719 879.550781 511.921875 889.28125 C 511.175781 884.792969 510.425781 880.304688 506.683594 876.5625 C 508.1875 883.292969 508.1875 890.027344 505.9375 896.015625 C 504.445312 900.507812 496.21875 904.996094 494.71875 902 C 490.980469 896.015625 490.234375 888.53125 485.746094 881.796875 C 485 885.539062 483.503906 891.527344 480.511719 890.777344 C 470.789062 887.785156 471.535156 872.070312 471.535156 862.339844 C 469.296875 866.828125 464.058594 869.074219 462.5625 874.316406 C 458.820312 859.347656 461.816406 842.136719 476.773438 833.90625 C 469.296875 836.148438 461.070312 837.648438 455.832031 842.882812 C 455.152344 837.441406 456.023438 832.148438 458.226562 827.578125 C 454.902344 831.636719 452.011719 837.65625 450.96875 846.628906 C 447.980469 872.445312 458.074219 903.496094 462.5625 910.609375 C 467.046875 917.71875 477.894531 925.199219 477.894531 925.199219 C 477.894531 925.199219 478.640625 921.085938 480.136719 917.71875 C 480.136719 917.71875 482.382812 926.320312 484.625 926.320312 C 486.867188 926.320312 496.21875 919.960938 496.21875 919.960938 L 497.710938 926.320312 C 497.710938 926.320312 510.800781 920.339844 522.390625 904.621094 C 533.984375 888.90625 542.582031 865.335938 542.207031 854.484375 "/>
<path style=" stroke:none;fill-rule:nonzero;fill:rgb(21.958923%,12.159729%,11.369324%);fill-opacity:1;" d="M 529.867188 882.542969 C 529.867188 878.804688 528.375 875.8125 526.128906 872.816406 C 525.011719 888.71875 518.652344 905.742188 505.9375 913.226562 C 505.191406 913.976562 507.433594 906.488281 505.191406 907.242188 C 499.957031 910.230469 493.972656 916.964844 487.988281 913.226562 C 486.492188 912.476562 485 909.484375 485 907.242188 C 482.753906 907.988281 481.257812 913.226562 478.265625 910.984375 C 470.789062 905.742188 466.300781 896.015625 466.300781 886.285156 C 464.808594 887.785156 463.125 893.207031 462.378906 894.707031 C 454.050781 888.6875 452.382812 875.882812 450.898438 866.621094 C 452.699219 886.539062 459.199219 905.28125 462.5625 910.609375 C 467.046875 917.71875 477.894531 925.199219 477.894531 925.199219 C 477.894531 925.199219 478.640625 921.085938 480.136719 917.71875 C 480.136719 917.71875 482.382812 926.320312 484.625 926.320312 C 486.867188 926.320312 496.21875 919.960938 496.21875 919.960938 L 497.710938 926.320312 C 497.710938 926.320312 510.800781 920.339844 522.390625 904.621094 C 530.511719 893.613281 537.152344 878.765625 540.285156 867.121094 C 537.304688 872.507812 533.960938 877.710938 529.867188 882.542969 "/>
<path style=" stroke:none;fill-rule:nonzero;fill:rgb(26.669312%,17.649841%,17.649841%);fill-opacity:1;" d="M 499.957031 844.382812 C 504.445312 836.148438 514.164062 839.140625 521.640625 841.390625 C 519.402344 830.910156 505.9375 828.667969 497.710938 833.160156 C 497.347656 833.519531 496.640625 834.058594 496.085938 834.769531 C 492.492188 829.515625 486.132812 825.894531 479.765625 827.171875 C 485.746094 827.917969 490.234375 832.414062 492.476562 837.648438 C 482.753906 836.148438 476.773438 844.382812 476.773438 852.613281 C 480.511719 848.125 485.746094 846.628906 490.980469 846.628906 C 478.265625 850.363281 479.015625 866.082031 481.257812 876.5625 C 481.257812 868.328125 487.238281 861.59375 492.476562 855.605469 C 486.492188 866.082031 491.730469 878.054688 499.207031 886.285156 C 502.949219 890.027344 500.703125 893.027344 499.957031 896.761719 C 503.699219 891.527344 505.191406 885.539062 502.949219 879.550781 C 500.703125 871.320312 490.980469 860.847656 499.207031 856.359375 C 507.433594 851.117188 509.679688 865.335938 510.425781 872.816406 C 517.160156 863.085938 512.671875 845.128906 499.957031 844.382812 "/>
<path style=" stroke:none;fill-rule:nonzero;fill:rgb(16.468811%,6.269836%,6.269836%);fill-opacity:1;" d="M 516.160156 839.394531 C 516.269531 839.476562 514.714844 836.421875 510.882812 835.757812 C 507.207031 835.132812 504.394531 836.382812 504.445312 836.398438 C 504.449219 836.496094 507.347656 835.933594 510.734375 836.53125 C 514.199219 837.085938 516.105469 839.472656 516.160156 839.394531 "/>
<path style=" stroke:none;fill-rule:nonzero;fill:rgb(16.468811%,6.269836%,6.269836%);fill-opacity:1;" d="M 479.515625 848.371094 C 479.613281 848.519531 481.71875 845.144531 485.980469 843.695312 C 490.1875 842.203125 494.003906 842.972656 493.972656 842.882812 C 494.074219 842.859375 490.269531 841.375 485.71875 842.953125 C 481.097656 844.574219 479.480469 848.507812 479.515625 848.371094 "/>
<path style=" stroke:none;fill-rule:nonzero;fill:rgb(16.468811%,6.269836%,6.269836%);fill-opacity:1;" d="M 481.007812 873.816406 C 481.199219 873.871094 481.679688 866.613281 484.742188 858.4375 C 486.304688 854.390625 488.667969 851.09375 491.121094 849.632812 C 493.558594 848.125 495.507812 848.40625 495.464844 848.371094 C 495.53125 848.347656 493.558594 847.832031 490.902344 849.253906 C 488.230469 850.613281 485.601562 854.003906 484.007812 858.152344 C 480.878906 866.539062 481.078125 873.859375 481.007812 873.816406 "/>
<path style=" stroke:none;fill-rule:nonzero;fill:rgb(16.468811%,6.269836%,6.269836%);fill-opacity:1;" d="M 511.421875 867.828125 C 511.359375 867.878906 511.855469 862.527344 509.347656 856.5 C 506.886719 850.238281 501.402344 848.054688 501.449219 848.371094 C 501.441406 848.238281 506.308594 850.835938 508.625 856.816406 C 511.050781 862.597656 511.234375 867.875 511.421875 867.828125 "/>
<path style=" stroke:none;fill-rule:nonzero;fill:rgb(16.468811%,6.269836%,6.269836%);fill-opacity:1;" d="M 501.203125 895.515625 C 501.121094 895.527344 502.054688 893.105469 501.511719 889.09375 C 501.011719 885.089844 499.023438 879.902344 497.046875 874.195312 C 495.015625 868.5 493.542969 863.1875 494.023438 859.226562 C 494.351562 855.246094 496.246094 853.316406 496.21875 853.363281 C 496.21875 853.257812 494.113281 855.085938 493.589844 859.171875 C 492.90625 863.214844 494.269531 868.761719 496.304688 874.453125 C 498.292969 880.191406 500.40625 885.269531 501.078125 889.164062 C 501.785156 893.054688 501.066406 895.507812 501.203125 895.515625 "/>
<path style=" stroke:none;fill-rule:nonzero;fill:rgb(70.199585%,25.489807%,16.468811%);fill-opacity:1;" d="M 426.660156 962.242188 C 426.660156 962.242188 428.910156 957.375 431.398438 955.878906 C 433.894531 954.386719 435.140625 956.628906 435.140625 956.628906 C 435.140625 956.628906 440.125 947.398438 445.363281 944.40625 C 450.597656 941.410156 456.582031 944.40625 456.582031 944.40625 C 456.582031 944.40625 458.578125 935.675781 460.570312 934.675781 C 462.5625 933.683594 470.789062 932.183594 483.257812 935.675781 C 495.71875 939.167969 497.710938 939.917969 504.9375 937.421875 C 512.167969 934.929688 519.902344 932.433594 524.886719 935.929688 C 529.867188 939.417969 530.121094 944.40625 530.121094 944.40625 C 530.121094 944.40625 540.59375 941.410156 546.570312 945.402344 C 552.554688 949.394531 555.050781 952.640625 555.050781 952.640625 C 555.050781 952.640625 559.039062 949.894531 560.03125 953.386719 C 561.03125 956.878906 560.78125 957.375 566.269531 958.125 C 571.753906 958.875 574.496094 961.121094 573.996094 964.859375 C 573.996094 964.859375 566.019531 959.875 560.535156 969.597656 C 555.050781 979.328125 534.109375 1023.726562 498.960938 1023.976562 C 463.8125 1024.226562 429.65625 971.222656 426.660156 962.242188 "/>
<path style=" stroke:none;fill-rule:nonzero;fill:rgb(73.329163%,32.159424%,20.779419%);fill-opacity:1;" d="M 533.609375 985.8125 C 508.1875 997.035156 478.265625 994.042969 454.332031 981.324219 C 469.296875 993.296875 487.238281 1003.023438 507.433594 1001.523438 C 527.523438 1000.035156 543.902344 985.960938 552.175781 966.65625 C 551.71875 966.804688 551.265625 966.953125 550.8125 967.101562 C 543.335938 972.34375 541.089844 982.070312 533.609375 985.8125 "/>
<path style=" stroke:none;fill-rule:nonzero;fill:rgb(73.329163%,32.159424%,20.779419%);fill-opacity:1;" d="M 458.074219 968.601562 C 477.519531 981.324219 500.703125 988.054688 520.898438 976.832031 C 529.867188 972.34375 538.097656 966.355469 544.082031 958.875 C 546.324219 957.375 547.820312 952.886719 545.574219 949.894531 C 536.605469 942.410156 526.128906 951.390625 516.410156 949.144531 C 517.160156 945.402344 518.652344 941.664062 520.898438 938.667969 C 508.1875 952.886719 485.746094 949.894531 470.042969 938.667969 C 469.042969 937.671875 467.054688 936.351562 465.171875 936.683594 C 465.582031 943.84375 471.816406 949.605469 477.519531 952.140625 C 493.226562 959.621094 508.933594 950.640625 524.636719 949.894531 C 526.128906 964.109375 508.933594 967.101562 498.460938 968.601562 C 502.949219 970.84375 511.921875 974.589844 505.9375 976.832031 C 485 985.8125 468.546875 963.363281 451.34375 952.886719 C 450.597656 958.875 452.839844 964.859375 458.074219 968.601562 "/>
<path style=" stroke:none;fill-rule:nonzero;fill:rgb(65.489197%,20.779419%,15.689087%);fill-opacity:1;" d="M 525.535156 936.421875 C 526.277344 940.378906 526.167969 944.230469 523.890625 947.652344 C 527.417969 948.042969 529.507812 946.167969 531.449219 944.085938 C 530.613281 944.265625 530.121094 944.40625 530.121094 944.40625 C 530.121094 944.40625 529.882812 939.867188 525.535156 936.421875 "/>
<path style=" stroke:none;fill-rule:nonzero;fill:rgb(65.489197%,20.779419%,15.689087%);fill-opacity:1;" d="M 550.8125 957.375 C 552.949219 955.769531 554.710938 953.78125 556.359375 951.957031 C 555.609375 952.253906 555.050781 952.640625 555.050781 952.640625 C 555.050781 952.640625 554.363281 951.746094 552.855469 950.332031 C 553.226562 952.792969 552.015625 954.355469 550.8125 957.375 "/>
<path style=" stroke:none;fill-rule:nonzero;fill:rgb(65.489197%,20.779419%,15.689087%);fill-opacity:1;" d="M 520.164062 934.285156 C 515.640625 933.832031 510.164062 935.621094 504.9375 937.421875 C 497.710938 939.917969 495.71875 939.167969 483.257812 935.675781 C 476.03125 933.652344 470.246094 933.308594 466.253906 933.570312 C 475.195312 935.179688 481.375 943.503906 490.234375 945.402344 C 502.089844 948.195312 510.042969 938.621094 520.164062 934.285156 "/>
<path style=" stroke:none;fill-rule:nonzero;fill:rgb(65.489197%,20.779419%,15.689087%);fill-opacity:1;" d="M 556.046875 970.097656 C 548.566406 991.800781 527.628906 1001.523438 508.1875 1003.023438 C 481.257812 1004.519531 446.105469 991.800781 436.386719 964.859375 C 459.570312 980.574219 487.988281 995.542969 516.410156 985.066406 C 529.867188 979.078125 540.34375 968.601562 550.8125 958.875 C 535.105469 970.097656 517.90625 982.070312 498.460938 984.3125 C 476.773438 986.558594 453.585938 973.839844 444.613281 952.886719 C 442.371094 946.898438 453.585938 944.65625 458.074219 949.144531 C 470.042969 959.621094 481.257812 973.839844 498.460938 974.589844 C 494.71875 972.34375 490.234375 970.84375 487.988281 966.355469 C 501.449219 967.101562 512.671875 958.875 522.390625 951.390625 C 511.175781 955.132812 499.207031 962.613281 487.238281 958.875 C 476.835938 955.402344 457.441406 949.351562 459.453125 935.953125 C 457.894531 938.652344 456.582031 944.40625 456.582031 944.40625 C 456.582031 944.40625 450.597656 941.410156 445.363281 944.40625 C 440.125 947.398438 435.140625 956.628906 435.140625 956.628906 C 435.140625 956.628906 433.894531 954.386719 431.398438 955.878906 C 428.910156 957.375 426.660156 962.242188 426.660156 962.242188 C 429.65625 971.222656 463.8125 1024.226562 498.960938 1023.976562 C 534.109375 1023.726562 555.050781 979.328125 560.535156 969.597656 C 563.902344 963.632812 568.195312 963.207031 571.019531 963.765625 C 565.597656 960.640625 557.8125 964.210938 556.046875 970.097656 "/>
<path style=" stroke:none;fill-rule:nonzero;fill:rgb(60.389709%,15.689087%,14.509583%);fill-opacity:1;" d="M 435.140625 956.628906 C 435.195312 956.511719 439.285156 962.984375 449.167969 969.890625 C 458.933594 976.71875 474.203125 984.34375 492.488281 986.640625 C 501.800781 988.089844 510.316406 984.257812 517.402344 981.074219 C 524.5625 977.664062 530.667969 973.960938 535.714844 970.746094 C 545.78125 964.257812 551.566406 959.625 551.5625 959.621094 C 551.527344 959.570312 545.621094 964.046875 535.484375 970.371094 C 530.398438 973.5 524.261719 977.125 517.109375 980.457031 C 510.007812 983.578125 501.652344 987.289062 492.566406 985.859375 C 474.484375 983.589844 459.230469 976.175781 449.425781 969.53125 C 439.488281 962.808594 435.25 956.480469 435.140625 956.628906 "/>
<path style=" stroke:none;fill-rule:nonzero;fill:rgb(60.389709%,15.689087%,14.509583%);fill-opacity:1;" d="M 494.472656 971.34375 C 494.496094 971.242188 491.789062 971.082031 487.996094 969.167969 C 484.175781 967.328125 479.472656 963.773438 474.65625 959.4375 C 465.277344 950.480469 456.976562 943.800781 456.582031 944.40625 C 456.957031 943.953125 464.699219 951.019531 474.132812 960.027344 C 478.976562 964.382812 483.847656 967.863281 487.808594 969.570312 C 491.75 971.347656 494.503906 971.300781 494.472656 971.34375 "/>
<path style=" stroke:none;fill-rule:nonzero;fill:rgb(60.389709%,15.689087%,14.509583%);fill-opacity:1;" d="M 479.015625 963.113281 C 478.734375 963.269531 488.84375 966.984375 500.5 962.300781 C 511.996094 958.238281 519.691406 951.847656 519.648438 951.886719 C 519.601562 951.753906 511.570312 957.566406 500.246094 961.554688 C 488.824219 966.164062 478.882812 963.167969 479.015625 963.113281 "/>
<path style=" stroke:none;fill-rule:nonzero;fill:rgb(60.389709%,15.689087%,14.509583%);fill-opacity:1;" d="M 333.367188 992.359375 C 333.375 992.34375 330.835938 996.386719 329.335938 1002.050781 C 327.71875 1007.726562 328.527344 1012.574219 328.691406 1012.5 C 328.65625 1012.5 328.515625 1007.785156 330.089844 1002.25 C 331.558594 996.710938 333.480469 992.40625 333.367188 992.359375 "/>
<path style=" stroke:none;fill-rule:nonzero;fill:rgb(60.389709%,15.689087%,14.509583%);fill-opacity:1;" d="M 275.03125 1000.402344 C 275.039062 1000.421875 273.851562 994 274.660156 986.136719 C 275.007812 977.996094 279.757812 973.066406 279.894531 973.277344 C 279.761719 972.84375 274.246094 977.667969 273.882812 986.054688 C 273.054688 994.09375 274.917969 1000.476562 275.03125 1000.402344 "/>
<path style=" stroke:none;fill-rule:nonzero;fill:rgb(60.389709%,15.689087%,14.509583%);fill-opacity:1;" d="M 415.914062 1024.070312 C 416.0625 1024.0625 413.027344 1014.351562 406.15625 1004.199219 C 398.8125 994.109375 400.824219 982.988281 400.628906 983.285156 C 400.714844 982.894531 398.074219 994.203125 405.570312 1004.605469 C 412.414062 1014.703125 415.9375 1024.0625 415.914062 1024.070312 "/>
<path style=" stroke:none;fill-rule:nonzero;fill:rgb(60.389709%,15.689087%,14.509583%);fill-opacity:1;" d="M 585.796875 1019.972656 C 585.738281 1019.953125 587.828125 1011.75 592.679688 1002.535156 C 597.296875 993.238281 603.226562 985.976562 603.164062 985.933594 C 603.121094 985.902344 596.628906 992.828125 591.972656 1002.183594 C 587.085938 1011.476562 585.597656 1019.976562 585.796875 1019.972656 "/>
<g clip-path="url(#clip8)" clip-rule="nonzero">
<path style=" stroke:none;fill-rule:nonzero;fill:rgb(10.5896%,28.62854%,27.449036%);fill-opacity:1;" d="M 584.089844 1000.402344 C 571.007812 995.167969 445.363281 994.789062 429.65625 1001.152344 C 415.417969 1006.917969 417.46875 1069.882812 417.972656 1081.59375 L 598.046875 1081.59375 C 598.882812 1067.445312 596.664062 1005.4375 584.089844 1000.402344 "/>
</g>
<g clip-path="url(#clip9)" clip-rule="nonzero">
<path style=" stroke:none;fill-rule:nonzero;fill:rgb(10.5896%,28.62854%,27.449036%);fill-opacity:1;" d="M 794.242188 1000.402344 C 781.15625 995.167969 655.515625 994.789062 639.8125 1001.152344 C 625.570312 1006.917969 627.621094 1069.882812 628.125 1081.59375 L 808.195312 1081.59375 C 809.039062 1067.445312 806.820312 1005.4375 794.242188 1000.402344 "/>
</g>
<path style=" stroke:none;fill-rule:nonzero;fill:rgb(65.879822%,50.19989%,14.118958%);fill-opacity:1;" d="M 374.316406 943.34375 C 374.316406 943.34375 365.902344 944.46875 365.902344 938.109375 C 365.902344 931.746094 368.519531 929.875 368.519531 929.875 C 368.519531 929.875 367.398438 927.441406 369.453125 925.945312 C 369.453125 925.945312 369.265625 917.34375 373.941406 912.289062 C 373.941406 912.289062 377.863281 897.511719 391.886719 886.851562 C 405.914062 876.183594 416.941406 873.5625 424.046875 875.0625 C 431.152344 876.5625 434.519531 878.617188 437.507812 879.175781 C 440.503906 879.738281 449.289062 881.796875 451.160156 885.164062 C 453.023438 888.53125 456.390625 887.597656 457.890625 892.648438 C 459.382812 897.699219 458.820312 899.195312 458.820312 899.195312 C 458.820312 899.195312 464.617188 907.800781 462.003906 916.777344 C 462.003906 916.777344 463.683594 924.828125 461.628906 928.941406 C 459.570312 933.054688 458.261719 934.929688 457.703125 937.921875 C 457.140625 940.910156 453.585938 945.777344 447.046875 945.402344 C 447.046875 945.402344 442.558594 952.699219 435.640625 954.945312 C 428.722656 957.1875 420.3125 967.476562 405.914062 964.488281 C 391.511719 961.492188 376.183594 955.320312 374.316406 943.34375 "/>
<path style=" stroke:none;fill-rule:nonzero;fill:rgb(75.289917%,58.81958%,20.779419%);fill-opacity:1;" d="M 385.535156 917.71875 C 384.023438 909.148438 384.550781 899.90625 388.480469 892.496094 C 381.5625 899.265625 376.019531 910.101562 385.535156 917.71875 "/>
<path style=" stroke:none;fill-rule:nonzero;fill:rgb(75.289917%,58.81958%,20.779419%);fill-opacity:1;" d="M 432.652344 890.027344 C 430.96875 888.347656 435.566406 884.996094 439.875 882.785156 C 430.066406 881.5 419.640625 888.550781 416.195312 897.511719 C 424.421875 893.027344 433.398438 893.773438 442.371094 893.773438 C 438.628906 894.519531 434.890625 893.773438 432.652344 898.261719 C 438.628906 893.027344 454.332031 899.757812 452.839844 893.027344 C 450.597656 887.03125 437.882812 894.519531 432.652344 890.027344 "/>
<path style=" stroke:none;fill-rule:nonzero;fill:rgb(75.289917%,58.81958%,20.779419%);fill-opacity:1;" d="M 413.207031 940.910156 C 413.207031 945.402344 416.941406 948.398438 420.683594 949.894531 C 426.339844 951.308594 431.332031 952.050781 436.28125 948.964844 C 428.125 949.1875 420.128906 945.328125 413.207031 940.910156 "/>
<path style=" stroke:none;fill-rule:nonzero;fill:rgb(75.289917%,58.81958%,20.779419%);fill-opacity:1;" d="M 447.835938 937.734375 C 438.554688 938.296875 429.359375 937.152344 420.683594 933.429688 C 427.203125 939.960938 440.5625 944.203125 447.835938 937.734375 "/>
<path style=" stroke:none;fill-rule:nonzero;fill:rgb(75.289917%,58.81958%,20.779419%);fill-opacity:1;" d="M 447.960938 904.773438 C 437.28125 905.511719 426.816406 910.820312 418.4375 916.964844 C 431.152344 920.710938 443.863281 927.441406 458.074219 923.707031 C 451.34375 918.464844 436.386719 922.207031 437.136719 913.976562 C 437.613281 909.226562 442.304688 906.285156 447.960938 904.773438 "/>
<path style=" stroke:none;fill-rule:nonzero;fill:rgb(75.289917%,58.81958%,20.779419%);fill-opacity:1;" d="M 400.492188 902 C 402.699219 892.046875 408.589844 882.507812 417.550781 877.902344 C 406.636719 880.53125 396.914062 890.074219 400.492188 902 "/>
<path style=" stroke:none;fill-rule:nonzero;fill:rgb(57.249451%,41.178894%,13.729858%);fill-opacity:1;" d="M 423.671875 879.550781 C 428.386719 877.78125 433.09375 879.261719 437.808594 879.234375 C 437.710938 879.214844 437.601562 879.195312 437.507812 879.175781 C 434.796875 878.671875 431.769531 876.929688 425.941406 875.496094 C 426.304688 876.910156 424.273438 877.753906 423.671875 879.550781 "/>
<path style=" stroke:none;fill-rule:nonzero;fill:rgb(57.249451%,41.178894%,13.729858%);fill-opacity:1;" d="M 444.613281 887.785156 C 447.6875 886.757812 450.414062 886.785156 453.265625 887.390625 C 452.484375 886.859375 451.75 886.226562 451.160156 885.164062 C 450.84375 884.601562 450.324219 884.074219 449.6875 883.585938 C 448.097656 885.085938 445.847656 885.929688 444.613281 887.785156 "/>
<path style=" stroke:none;fill-rule:nonzero;fill:rgb(57.249451%,41.178894%,13.729858%);fill-opacity:1;" d="M 453.585938 899.007812 C 456.09375 900.011719 458.59375 901.015625 460.648438 902.691406 C 459.71875 900.53125 458.820312 899.195312 458.820312 899.195312 C 458.820312 899.195312 459.074219 898.507812 458.78125 896.515625 C 457.585938 897.773438 455.59375 898.609375 453.585938 899.007812 "/>
<path style=" stroke:none;fill-rule:nonzero;fill:rgb(57.249451%,41.178894%,13.729858%);fill-opacity:1;" d="M 462.601562 921.503906 C 462.441406 918.894531 462.003906 916.777344 462.003906 916.777344 C 462.21875 916.035156 462.375 915.300781 462.480469 914.566406 C 460.886719 915.773438 458.535156 916.546875 456.582031 917.71875 C 459.347656 918.113281 461.28125 919.5625 462.601562 921.503906 "/>
<path style=" stroke:none;fill-rule:nonzero;fill:rgb(57.249451%,41.178894%,13.729858%);fill-opacity:1;" d="M 453.585938 933.429688 C 455.121094 934.199219 456.839844 935.550781 457.863281 937.1875 C 458.449219 934.75 459.601562 932.9375 461.300781 929.589844 C 459.199219 931.785156 456.558594 933.429688 453.585938 933.429688 "/>
<path style=" stroke:none;fill-rule:nonzero;fill:rgb(57.249451%,41.178894%,13.729858%);fill-opacity:1;" d="M 415.445312 928.195312 C 427.414062 928.941406 440.878906 937.921875 452.09375 928.195312 C 437.882812 927.441406 423.671875 925.199219 410.957031 918.464844 C 418.4375 905.742188 435.640625 904.996094 448.355469 899.757812 C 436.386719 897.511719 424.421875 904.25 413.207031 902 C 410.210938 901.253906 413.953125 891.527344 417.691406 887.03125 C 407.96875 890.027344 404.976562 904.25 398.246094 909.484375 C 392.265625 913.976562 393.011719 899.007812 393.761719 893.027344 C 383.289062 900.507812 393.761719 916.21875 385.535156 922.207031 C 379.699219 926.097656 374.992188 917.058594 374.816406 909.707031 C 374.199219 911.324219 373.941406 912.289062 373.941406 912.289062 C 373.847656 912.386719 373.757812 912.492188 373.675781 912.59375 C 372.820312 919.289062 373.425781 926.6875 380.296875 930.441406 C 376.144531 929.402344 371.265625 926.554688 369.679688 922.65625 C 369.425781 924.601562 369.453125 925.945312 369.453125 925.945312 C 367.398438 927.441406 368.519531 929.875 368.519531 929.875 C 368.519531 929.875 365.902344 931.746094 365.902344 938.109375 C 365.902344 944.46875 374.316406 943.34375 374.316406 943.34375 C 376.183594 955.320312 391.511719 961.492188 405.914062 964.488281 C 409.519531 965.234375 412.746094 965.148438 415.675781 964.566406 C 415.535156 963.644531 415.222656 962.738281 414.699219 961.867188 C 410.957031 955.878906 398.992188 953.632812 401.984375 943.90625 C 405.699219 952.402344 415.058594 959.753906 424.984375 960.917969 C 428.804688 958.765625 432.011719 956.347656 434.933594 955.199219 C 426.714844 956.625 418.339844 956.769531 411.707031 950.640625 C 408.71875 947.652344 405.722656 943.160156 407.214844 938.667969 C 408.71875 936.425781 411.707031 936.425781 413.953125 937.921875 C 424.160156 944.730469 434.992188 946.578125 446.441406 946.292969 C 446.835938 945.742188 447.046875 945.402344 447.046875 945.402344 C 450.78125 945.617188 453.539062 944.121094 455.320312 942.246094 C 440.664062 947.976562 421.566406 941.796875 415.445312 928.195312 "/>
<path style=" stroke:none;fill-rule:nonzero;fill:rgb(52.549744%,36.859131%,10.978699%);fill-opacity:1;" d="M 399.742188 952.886719 C 398.992188 949.894531 395.253906 949.144531 394.507812 946.152344 C 393.011719 942.410156 395.253906 937.921875 398.246094 937.175781 C 401.984375 936.425781 401.238281 944.65625 405.722656 946.152344 C 403.480469 942.410156 403.480469 937.175781 404.226562 933.429688 C 404.976562 928.195312 412.453125 933.429688 416.195312 934.929688 C 413.953125 931.1875 407.96875 931.933594 407.214844 926.695312 C 411.707031 925.945312 416.941406 927.441406 421.433594 927.441406 C 416.195312 925.199219 407.96875 926.695312 406.46875 921.457031 C 404.976562 913.976562 416.289062 909.859375 421.523438 904.621094 C 414.792969 905.367188 410.210938 912.476562 403.480469 913.976562 C 403.480469 908.738281 404.226562 904.25 406.46875 899.757812 C 401.238281 905.742188 404.226562 915.472656 398.246094 919.210938 C 392.265625 922.953125 393.011719 910.984375 390.019531 906.488281 C 389.269531 912.476562 393.011719 919.210938 389.269531 924.453125 C 386.28125 927.441406 381.046875 926.695312 377.304688 923.707031 C 378.050781 927.441406 384.789062 928.195312 384.035156 929.6875 C 381.792969 934.175781 373.566406 931.933594 370.574219 928.195312 C 369.824219 931.1875 373.566406 932.683594 375.0625 934.929688 C 376.554688 938.667969 370.574219 940.910156 367.582031 940.164062 C 366.9375 939.84375 366.40625 939.414062 365.957031 938.914062 C 366.640625 944.363281 374.316406 943.34375 374.316406 943.34375 C 375.902344 953.535156 387.242188 959.523438 399.464844 962.925781 C 400.5625 959.664062 400.714844 956.136719 399.742188 952.886719 "/>
<path style=" stroke:none;fill-rule:nonzero;fill:rgb(43.919373%,27.059937%,11.759949%);fill-opacity:1;" d="M 393.574219 921.085938 C 393.757812 921.046875 391.0625 915.492188 390.675781 908.128906 C 390.203125 900.75 392.640625 895.039062 392.640625 895.082031 C 392.546875 894.929688 389.421875 900.539062 389.890625 908.175781 C 390.308594 915.769531 393.65625 921.121094 393.574219 921.085938 "/>
<path style=" stroke:none;fill-rule:nonzero;fill:rgb(43.919373%,27.059937%,11.759949%);fill-opacity:1;" d="M 415.820312 889.09375 C 415.898438 888.910156 408.457031 893.308594 404.902344 902.824219 C 401.210938 912.046875 401.210938 920.199219 401.238281 920.148438 C 401.339844 920.191406 402.003906 912.160156 405.628906 903.121094 C 409.074219 893.835938 415.898438 889.074219 415.820312 889.09375 "/>
<path style=" stroke:none;fill-rule:nonzero;fill:rgb(43.919373%,27.059937%,11.759949%);fill-opacity:1;" d="M 446.667969 899.382812 C 446.796875 899.613281 434.839844 898.503906 421.585938 904.230469 C 408.082031 909.953125 402.339844 921.152344 402.734375 921.085938 C 402.496094 921.148438 408.675781 910.527344 421.90625 904.945312 C 434.902344 899.308594 446.78125 899.730469 446.667969 899.382812 "/>
<path style=" stroke:none;fill-rule:nonzero;fill:rgb(43.919373%,27.059937%,11.759949%);fill-opacity:1;" d="M 451.160156 930.0625 C 451.191406 929.875 440.503906 931.472656 427.855469 928.117188 C 421.585938 926.621094 415.804688 924.777344 411.425781 925.242188 C 407.074219 925.449219 404.742188 927.082031 404.789062 927.066406 C 404.78125 927.132812 407.175781 925.703125 411.445312 925.683594 C 415.722656 925.402344 421.320312 927.363281 427.675781 928.882812 C 440.484375 932.269531 451.253906 929.996094 451.160156 930.0625 "/>
<path style=" stroke:none;fill-rule:nonzero;fill:rgb(43.919373%,27.059937%,11.759949%);fill-opacity:1;" d="M 443.492188 945.402344 C 443.617188 945.308594 433.671875 945.253906 424.039062 938.546875 C 419.253906 935.417969 415.136719 931.855469 411.289062 930.929688 C 407.480469 929.964844 405.101562 930.980469 405.160156 931 C 405.136719 931.03125 407.53125 930.242188 411.164062 931.355469 C 414.820312 932.40625 418.734375 936.011719 423.613281 939.210938 C 433.480469 946.042969 443.683594 945.441406 443.492188 945.402344 "/>
<path style=" stroke:none;fill-rule:nonzero;fill:rgb(43.919373%,27.059937%,11.759949%);fill-opacity:1;" d="M 419.558594 955.878906 C 419.683594 955.746094 413.441406 954.695312 408.535156 949.238281 C 403.621094 943.917969 401.863281 938.027344 401.796875 938.109375 C 401.730469 938.035156 402.867188 944.230469 407.964844 949.773438 C 413.121094 955.464844 419.734375 955.878906 419.558594 955.878906 "/>
<path style=" stroke:none;fill-rule:nonzero;fill:rgb(43.919373%,27.059937%,11.759949%);fill-opacity:1;" d="M 386.84375 928.007812 C 387.058594 927.859375 380.875 928.464844 376.910156 923.113281 C 372.921875 917.933594 373.941406 912.15625 373.941406 912.289062 C 373.835938 912.03125 372.058594 918.007812 376.289062 923.597656 C 380.667969 929.335938 387.179688 927.972656 386.84375 928.007812 "/>
<path style=" stroke:none;fill-rule:nonzero;fill:rgb(43.919373%,27.059937%,11.759949%);fill-opacity:1;" d="M 383.660156 932.121094 C 383.707031 931.898438 379.703125 933.753906 375.292969 931.886719 C 370.890625 929.976562 369.46875 925.832031 369.453125 925.945312 C 369.332031 925.78125 370.144531 930.433594 374.984375 932.609375 C 379.90625 934.609375 383.804688 931.972656 383.660156 932.121094 "/>
<path style=" stroke:none;fill-rule:nonzero;fill:rgb(43.919373%,27.059937%,11.759949%);fill-opacity:1;" d="M 409.089844 962.988281 C 409.167969 962.949219 405.046875 960.519531 403.074219 955.289062 C 401.054688 950.1875 400.941406 945.566406 400.863281 945.59375 C 400.816406 945.539062 400.25 950.246094 402.347656 955.585938 C 404.46875 961.113281 409.1875 963.113281 409.089844 962.988281 "/>
<path style=" stroke:none;fill-rule:nonzero;fill:rgb(94.509888%,61.178589%,10.5896%);fill-opacity:1;" d="M 388.523438 928.753906 C 387.402344 925.574219 393.574219 919.773438 399.550781 923.515625 C 405.535156 927.253906 399.183594 937.921875 392.640625 934.929688 C 386.09375 931.933594 388.523438 928.753906 388.523438 928.753906 "/>
<path style=" stroke:none;fill-rule:nonzero;fill:rgb(87.838745%,53.329468%,13.729858%);fill-opacity:1;" d="M 397.238281 932.414062 C 399.007812 928.042969 395.496094 924.984375 391.613281 925.726562 C 392.0625 923.640625 393.992188 923.042969 395.792969 922.3125 C 391.28125 922.125 387.636719 926.25 388.523438 928.753906 C 388.523438 928.753906 386.09375 931.933594 392.640625 934.929688 C 396.152344 936.535156 399.613281 934.203125 401.132812 931.113281 C 399.910156 931.707031 398.535156 932.109375 397.238281 932.414062 "/>
<path style=" stroke:none;fill-rule:nonzero;fill:rgb(65.879822%,50.19989%,14.118958%);fill-opacity:1;" d="M 392.820312 927.066406 C 387.5 924.976562 373.378906 935.863281 371.699219 943.53125 C 370.011719 951.199219 376.183594 953.261719 374.316406 956.8125 C 372.445312 960.367188 371.507812 960.554688 371.320312 963.921875 C 371.320312 963.921875 365.335938 965.609375 360.476562 970.097656 C 355.617188 974.589844 353.933594 986 360.476562 987.496094 C 360.476562 987.496094 359.171875 994.230469 365.902344 996.101562 C 372.632812 997.96875 380.296875 1001.34375 381.792969 1003.585938 C 383.289062 1005.832031 384.035156 1013.125 378.050781 1012.003906 C 378.050781 1012.003906 387.777344 1016.492188 390.953125 1006.765625 C 394.132812 997.035156 384.40625 993.296875 390.019531 984.878906 C 395.628906 976.457031 410.957031 968.226562 408.902344 961.121094 C 406.847656 954.007812 393.386719 953.261719 393.386719 953.261719 C 393.386719 953.261719 386.65625 947.273438 391.140625 940.164062 C 395.628906 933.054688 398.992188 929.503906 392.820312 927.066406 "/>
<path style=" stroke:none;fill-rule:nonzero;fill:rgb(57.249451%,41.178894%,13.729858%);fill-opacity:1;" d="M 394.507812 961.121094 C 390.765625 961.867188 381.136719 961.679688 377.398438 959.433594 C 375.902344 957.933594 382.445312 957 372.066406 947.652344 C 371.816406 947.265625 371.605469 946.875 371.414062 946.484375 C 371.613281 951.8125 375.917969 953.765625 374.316406 956.8125 C 372.445312 960.367188 371.507812 960.554688 371.320312 963.921875 C 371.320312 963.921875 370.808594 964.070312 369.984375 964.378906 C 377.835938 962.601562 387.121094 968.601562 394.507812 961.121094 "/>
<path style=" stroke:none;fill-rule:nonzero;fill:rgb(57.249451%,41.178894%,13.729858%);fill-opacity:1;" d="M 397.253906 953.777344 C 395.03125 953.351562 393.386719 953.261719 393.386719 953.261719 C 393.386719 953.261719 386.65625 947.273438 391.140625 940.164062 C 392.117188 938.617188 393.039062 937.242188 393.820312 936.007812 C 390.125 937.089844 387.609375 939.75 386.28125 942.410156 C 384.035156 946.152344 385.535156 951.390625 389.269531 952.886719 C 390.460938 953.363281 391.726562 953.609375 393.015625 953.726562 C 393.015625 953.691406 393.011719 953.667969 393.011719 953.632812 C 393.011719 953.667969 393.015625 953.691406 393.015625 953.726562 C 394.414062 953.851562 395.847656 953.832031 397.253906 953.777344 "/>
<path style=" stroke:none;fill-rule:nonzero;fill:rgb(75.289917%,58.81958%,20.779419%);fill-opacity:1;" d="M 378.28125 1012.101562 C 378.546875 1012.109375 378.8125 1012.109375 379.078125 1012.117188 C 378.765625 1012.109375 378.421875 1012.070312 378.050781 1012.003906 C 378.050781 1012.003906 378.136719 1012.042969 378.28125 1012.101562 "/>
<path style=" stroke:none;fill-rule:nonzero;fill:rgb(57.249451%,41.178894%,13.729858%);fill-opacity:1;" d="M 381.046875 984.3125 C 381.679688 982.410156 383.933594 981.578125 385.972656 980.457031 C 378.664062 980.066406 377.039062 990.433594 371.320312 993.296875 C 366.835938 995.542969 367.582031 985.8125 371.320312 982.820312 C 366.835938 984.3125 363.09375 987.308594 362.347656 991.800781 C 360.105469 978.332031 378.050781 977.578125 386.28125 973.089844 C 376.554688 975.335938 366.835938 978.332031 357.113281 979.824219 C 356.875 979.824219 356.558594 979.433594 356.308594 978.835938 C 355.777344 982.855469 356.882812 986.671875 360.476562 987.496094 C 360.476562 987.496094 359.171875 994.230469 365.902344 996.101562 C 372.632812 997.96875 380.296875 1001.34375 381.792969 1003.585938 C 383.191406 1005.6875 383.9375 1012.214844 379.113281 1012.117188 C 381.425781 1012.152344 383.632812 1011.933594 385.535156 1010.507812 C 388.523438 1008.257812 388.523438 1004.519531 387.027344 1002.277344 C 382.539062 997.035156 378.050781 991.054688 381.046875 984.3125 "/>
<path style=" stroke:none;fill-rule:nonzero;fill:rgb(75.289917%,58.81958%,20.779419%);fill-opacity:1;" d="M 378.050781 940.164062 C 376.554688 946.152344 378.925781 950.082031 383.382812 953.046875 C 377.617188 944.972656 382.003906 933.636719 389.835938 929.960938 C 383.800781 929.40625 380.042969 934.191406 378.050781 940.164062 "/>
<path style=" stroke:none;fill-rule:nonzero;fill:rgb(75.289917%,58.81958%,20.779419%);fill-opacity:1;" d="M 384.789062 991.800781 C 386.09375 993.984375 388.9375 995.917969 390.777344 998.339844 C 389.226562 993.871094 386.359375 990.367188 390.019531 984.878906 C 391.066406 983.300781 392.457031 981.734375 394.011719 980.175781 C 388.265625 981.539062 381.582031 986.667969 384.789062 991.800781 "/>
<path style=" stroke:none;fill-rule:nonzero;fill:rgb(75.289917%,58.81958%,20.779419%);fill-opacity:1;" d="M 393.253906 955.003906 C 394.441406 958.152344 399.574219 958.378906 398.246094 960.367188 C 390.019531 970.84375 373.566406 964.109375 364.589844 974.589844 C 372.820312 972.34375 382.539062 967.855469 389.269531 970.84375 C 392.265625 972.34375 381.792969 974.589844 380.296875 980.574219 C 387.027344 973.839844 397.496094 973.839844 402.734375 967.101562 C 410.207031 959.007812 400.574219 957.128906 393.253906 955.003906 "/>
<path style=" stroke:none;fill-rule:nonzero;fill:rgb(43.919373%,27.059937%,11.759949%);fill-opacity:1;" d="M 393.386719 953.261719 C 393.523438 953.039062 389.6875 952.929688 386.746094 950.226562 C 384.054688 947.039062 386.566406 943.226562 386.28125 943.410156 C 386.570312 943.101562 383.0625 946.714844 386.167969 950.761719 C 389.628906 953.835938 393.507812 953.113281 393.386719 953.261719 "/>
<path style=" stroke:none;fill-rule:nonzero;fill:rgb(43.919373%,27.059937%,11.759949%);fill-opacity:1;" d="M 371.320312 963.613281 C 371.320312 963.65625 376.324219 962.953125 382.40625 963.585938 C 388.730469 965.113281 393.582031 961.785156 393.011719 961.367188 C 393.277344 961.761719 388.710938 964.285156 382.484375 962.800781 C 376.242188 962.164062 371.273438 963.539062 371.320312 963.613281 "/>
<path style=" stroke:none;fill-rule:nonzero;fill:rgb(43.919373%,27.059937%,11.759949%);fill-opacity:1;" d="M 360.476562 987.496094 C 360.648438 987.566406 360.765625 985.671875 362.4375 983.402344 C 364.058594 981.054688 367.703125 979.378906 371.832031 978.21875 C 380.308594 976.3125 386.765625 973.058594 386.527344 972.71875 C 386.617188 972.976562 380.132812 975.542969 371.609375 977.464844 C 367.4375 978.628906 363.632812 980.566406 362.078125 983.148438 C 360.488281 985.632812 360.59375 987.550781 360.476562 987.496094 "/>
<path style=" stroke:none;fill-rule:nonzero;fill:rgb(43.919373%,27.059937%,11.759949%);fill-opacity:1;" d="M 366.957031 996.289062 C 366.800781 996.496094 364.285156 993.484375 365.957031 989.300781 C 367.085938 985.070312 370.546875 983.519531 370.574219 983.691406 C 370.667969 983.304688 366.464844 984.46875 365.203125 989.066406 C 363.40625 993.660156 366.851562 996.808594 366.957031 996.289062 "/>
<path style=" stroke:none;fill-rule:nonzero;fill:rgb(43.919373%,27.059937%,11.759949%);fill-opacity:1;" d="M 381.296875 1002.839844 C 381.679688 1003.023438 375.65625 997.714844 377.957031 989.808594 C 378.976562 986.039062 380.949219 982.945312 383.066406 981.503906 C 385.21875 980.109375 386.933594 980.054688 386.886719 979.914062 C 386.925781 979.996094 385.191406 979.824219 382.824219 981.132812 C 380.492188 982.484375 378.246094 985.703125 377.203125 989.59375 C 374.851562 998.179688 381.6875 1003.175781 381.296875 1002.839844 "/>
<path style=" stroke:none;fill-rule:nonzero;fill:rgb(19.219971%,37.249756%,37.249756%);fill-opacity:1;" d="M 582.269531 1003.660156 C 569.527344 999.0625 447.214844 998.730469 431.925781 1004.320312 C 426.867188 1006.15625 423.769531 1014.667969 421.878906 1025.234375 C 425.984375 1021.175781 430.863281 1017.949219 436.777344 1016.46875 C 481.191406 1004.644531 526.332031 1013.839844 570.738281 1012.527344 C 578.410156 1012.121094 584.679688 1014.238281 590.25 1017.777344 C 588.378906 1010.378906 585.800781 1004.9375 582.269531 1003.660156 "/>
<path style=" stroke:none;fill-rule:nonzero;fill:rgb(19.219971%,37.249756%,37.249756%);fill-opacity:1;" d="M 792.417969 1003.410156 C 779.679688 998.8125 657.363281 998.484375 642.074219 1004.066406 C 637.023438 1005.910156 633.921875 1014.421875 632.027344 1024.980469 C 636.136719 1020.925781 641.011719 1017.699219 646.925781 1016.21875 C 691.339844 1004.398438 736.480469 1013.589844 780.894531 1012.277344 C 788.558594 1011.867188 794.832031 1013.984375 800.398438 1017.53125 C 798.53125 1010.132812 795.953125 1004.683594 792.417969 1003.410156 "/>
</g>
</svg>
